<svg id="Layer_1" xmlns="http://www.w3.org/2000/svg" viewBox="0 0 512 512"><style>.st0{fill:#78bbeb}</style><path class="st0" d="M438.9 197C438.9 95.5 357 13.7 256 13.7S73.1 95.5 73.1 196.6v.5C32.5 199.3 0 233.1 0 274.3v9.1c0 43 34.7 77.7 77.7 77.7h4.1l32.5 51.7c22.9 36.6 61.7 58.1 104.7 58.1h6.4c4.1 15.5 18.3 27.4 35.2 27.4 20.1 0 36.6-16.5 36.6-36.6s-16.5-36.6-36.6-36.6c-16.9 0-31.1 11.9-35.2 27.4H219c-36.6 0-69.9-18.7-89.1-49.8l-26.5-41.6h6.4c10.1 0 18.3-8.2 18.3-18.3v-128c0-10.1-8.2-18.3-18.3-18.3H91.4C91.4 105.6 165 32 256 32s164.6 73.6 164.6 164.6h-18.3c-10.1 0-18.3 8.2-18.3 18.3v128c0 10.1 8.2 18.3 18.3 18.3h32c43 0 77.7-34.7 77.7-77.7v-9.1c0-41.3-32.5-75.1-73.1-77.4zM260.6 443.4c10.1 0 18.3 8.2 18.3 18.3s-8.2 18.3-18.3 18.3c-10.1 0-18.3-8.2-18.3-18.3s8.2-18.3 18.3-18.3zM109.7 214.9v128h-32c-32.9 0-59.4-26.5-59.4-59.4v-9.1c0-32.9 26.5-59.4 59.4-59.4h32zm384 68.5c0 32.9-26.5 59.4-59.4 59.4h-32v-128h32c32.9 0 59.4 26.5 59.4 59.4v9.2z"/><path class="st0" d="M331.9 82.7c-.9-.5-2.3-1.4-3.7-2.3-1.4-.9-2.7-1.8-3.7-2.3-4.1-2.7-10.1-1.4-12.3 3.2-2.3 4.6-1.4 9.6 3.2 12.3.9.5 2.3 1.4 3.7 2.3 1.4.9 2.7 1.8 4.1 2.3 1.4.9 3.2 1.4 4.6 1.4 3.2 0 5.9-1.4 7.8-4.6 2.2-4 .9-9.5-3.7-12.3zM256 59.4c-38.9 0-75.4 16.9-100.6 46.2-3.2 3.7-2.7 9.6.9 12.8 1.8 1.4 3.7 2.3 5.9 2.3 2.7 0 5-.9 6.9-3.2C191 92.4 222.6 77.7 256 77.7c8.2 0 16.5.9 24.7 2.7 5 .9 9.6-2.3 11-6.9 1.4-4.6-2.3-9.6-6.9-11-9.6-2.2-19.2-3.1-28.8-3.1z"/></svg>