<svg id="Capa_1" xmlns="http://www.w3.org/2000/svg" viewBox="0 0 512 512"><style>.st0{fill:#78bbeb}</style><path class="st0" d="M256 0C114.8 0 0 114.8 0 256s114.8 256 256 256 256-114.8 256-256S397.2 0 256 0zm0 494.9C124.3 494.9 17.1 387.7 17.1 256S124.3 17.1 256 17.1 494.9 124.3 494.9 256 387.7 494.9 256 494.9z"/><path class="st0" d="M264.5 222v-86.5c0-4.7-3.8-8.5-8.5-8.5s-8.5 3.8-8.5 8.5V222c-11.9 3.1-21.3 12.5-24.4 24.4h-60.9c-4.7 0-8.5 3.8-8.5 8.5s3.8 8.5 8.5 8.5h60.9c3.8 14.7 17.1 25.6 32.9 25.6 18.8 0 34.1-15.3 34.1-34.1 0-15.8-10.9-29-25.6-32.9zm-8.5 50c-9.4 0-17.1-7.7-17.1-17.1s7.7-17.1 17.1-17.1c9.4 0 17.1 7.7 17.1 17.1S265.4 272 256 272zm0-187.7c4.7 0 8.5-3.8 8.5-8.5v-8.5c0-4.7-3.8-8.5-8.5-8.5s-8.5 3.8-8.5 8.5v8.5c0 4.7 3.8 8.5 8.5 8.5zm0 341.3c-4.7 0-8.5 3.8-8.5 8.5v8.5c0 4.7 3.8 8.5 8.5 8.5s8.5-3.8 8.5-8.5v-8.5c0-4.7-3.8-8.5-8.5-8.5zm187.7-179.2h-8.5c-4.7 0-8.5 3.8-8.5 8.5s3.8 8.5 8.5 8.5h8.5c4.7 0 8.5-3.8 8.5-8.5.1-4.7-3.8-8.5-8.5-8.5zm-366.9 0h-8.5c-4.7 0-8.5 3.8-8.5 8.5s3.8 8.5 8.5 8.5h8.5c4.7 0 8.5-3.8 8.5-8.5s-3.8-8.5-8.5-8.5zm305.9-130.2l-6 6c-3.3 3.3-3.3 8.7 0 12.1 1.7 1.7 3.8 2.5 6 2.5s4.4-.8 6-2.5l6-6c3.3-3.3 3.3-8.7 0-12.1s-8.7-3.3-12 0zM123.3 375.6l-6 6c-3.3 3.3-3.3 8.7 0 12.1 1.7 1.7 3.8 2.5 6 2.5s4.4-.8 6-2.5l6-6c3.3-3.3 3.3-8.7 0-12.1-3.3-3.3-8.7-3.3-12 0zm265.4 0c-3.3-3.3-8.7-3.3-12.1 0-3.3 3.3-3.3 8.7 0 12.1l6 6c1.7 1.7 3.8 2.5 6 2.5s4.4-.8 6-2.5c3.3-3.3 3.3-8.7 0-12.1l-5.9-6zM129.3 116.2c-3.3-3.3-8.7-3.3-12.1 0s-3.3 8.7 0 12.1l6 6c1.7 1.7 3.8 2.5 6 2.5s4.4-.8 6-2.5c3.3-3.3 3.3-8.7 0-12.1l-5.9-6z"/></svg>