<svg id="Layer_1" xmlns="http://www.w3.org/2000/svg" viewBox="0 0 490.2 490.2"><style>.st0{fill:#78bbeb}</style><path class="st0" d="M265.6 20.5c-61.1 0-118.2 24.1-160.8 67.8-3.8 3.9-3.7 10.2.2 14 3.9 3.8 10.2 3.7 14-.2 38.9-39.9 90.9-61.8 146.6-61.8 112.9 0 204.8 91.9 204.8 204.8s-91.9 204.8-204.8 204.8S60.8 358 60.8 245.1V237l24.1 24.1c1.9 1.9 4.5 2.9 7 2.9s5.1-1 7-2.9c3.9-3.9 3.9-10.1 0-14l-41-41c-3.9-3.9-10.1-3.9-14 0l-41 41c-3.9 3.9-3.9 10.1 0 14 1.9 1.9 4.5 2.9 7 2.9s5.1-1 7-2.9L41 237v8.1c0 123.8 100.7 224.6 224.6 224.6s224.6-100.8 224.6-224.6S389.4 20.5 265.6 20.5z"/><path class="st0" d="M265.6 121.4c-36.3 0-65.8 29.5-65.8 65.8v34h-22.5c-5.5 0-9.9 4.4-9.9 9.9V345c0 5.5 4.4 9.9 9.9 9.9h176.5c5.5 0 9.9-4.4 9.9-9.9V231c0-5.5-4.4-9.9-9.9-9.9h-22.5v-34c.1-36.2-29.4-65.7-65.7-65.7zm-46 65.8c0-25.4 20.6-46 46-46s46 20.6 46 46v34h-91.9v-34h-.1zM344 240.9V335H187.2v-94.1H344z"/></svg>