<svg xmlns="http://www.w3.org/2000/svg" viewBox="0 0 512 512"><path d="M504.5 198L346.8 40.3c-10-10-26.3-10-36.3 0l-24.3 24.3c-4.9 4.9-7.5 11.3-7.5 18.2 0 6.8 2.7 13.3 7.5 18.1l7.1 7.1c-8.6 3.4-20.6 8.7-34.2 16.2-14-10.7-25.5-19.2-32.6-24.4 9-10.1 8.8-25.6-.9-35.2l-24.3-24.3c-10-10-26.3-10-36.3 0L7.5 198c-10 10-10 26.3 0 36.3l24.3 24.3c5 5 11.6 7.5 18.2 7.5 6.1 0 12.2-2.3 17-6.6 5.6 7.8 14.9 20.4 25.9 34.9l-24.8 24.8c-1.6 1.6-2.5 3.8-2.5 6.1s.9 4.5 2.5 6.1l30.3 30.3 12.1 12.1 18.2 18.2 12.1 12.1 24.2 24.2 12.1 12.1 36.4 36.4c1.7 1.7 3.9 2.5 6.1 2.5s4.4-.8 6.1-2.5l26.5-26.5c16.1 12 27.9 20.4 29.1 21.3 1.5 1.1 3.2 1.6 5 1.6 2.2 0 4.4-.9 6.1-2.5l115.1-115.1 30.3-30.3c3-3 3.3-7.6.9-11-1-1.4-10.4-14.6-23.7-32.3l17.3-34.8 11.6 11.6c5 5 11.6 7.5 18.1 7.5 6.6 0 13.2-2.5 18.2-7.5l24.3-24.3c4.9-4.9 7.5-11.3 7.5-18.2 0-7-2.7-13.5-7.5-18.3zM56 246.4c-3.4 3.4-8.7 3.4-12.1 0l-24.3-24.3c-3.3-3.3-3.4-8.7 0-12.1L177.3 52.4c1.7-1.7 3.8-2.5 6-2.5s4.4.9 6.1 2.6l24.3 24.3c3.3 3.3 3.4 8.7 0 12.1L56 246.4zm30.3 78.8l17.1-17.1c6.9 8.9 14.2 18.1 21.5 27l-14.4 14.4-24.2-24.3zm54.5 54.5l-18.2-18.2 13.3-13.3c5.9 7 11.7 13.5 17.1 19.2l-12.2 12.3zm36.4 36.4L153 391.8l12.2-12.2c7.5 7.1 16.4 14.8 25.8 22.7l-13.8 13.8zm42.4 42.4l-30.3-30.3 15-15c11.5 9.3 23.2 18.4 34 26.6l-18.7 18.7zm200.9-140.3l-19.1 19.1-78.8-78.8c-3.3-3.3-8.8-3.3-12.1 0-3.3 3.3-3.3 8.8 0 12.1l78.8 78.8-24.2 24.2-78.8-78.8c-3.3-3.3-8.8-3.3-12.1 0-3.3 3.3-3.3 8.8 0 12.1l78.8 78.8-24.3 24.3-78.8-78.8c-3.3-3.3-8.8-3.3-12.1 0s-3.3 8.8 0 12.1l78.8 78.8-31.2 31.2c-19.8-14.4-84.3-61.8-114.2-91.8-17.1-17.1-39.9-45.5-59.1-70.4-.4-.8-.9-1.6-1.5-2.3-.1-.1-.3-.2-.5-.3-13.5-17.6-24.9-33.1-30.7-41.2l135.1-135.1c6 4.4 16.1 11.9 28.9 21.6-13.6 8.8-27.9 19.6-41.2 32.9-20.5 20.5-34 35.5-41.4 45.8-3.6 5.1-12 17-4 25 1.9 1.9 5.4 5.4 38.8 8.5h.8c1.3 0 2.5-.3 3.6-.8 17.8-8.4 50.8-21.1 63.2-19.7 19.7 2.2 48.8-14.1 64.5-23 .3.5.5 1 .9 1.4 30 30 77.5 94.5 91.9 114.3zm-17.1-51.6c-19.8-25.9-44.1-56.2-62.6-74.7-1.1-1.1-2.4-1.7-3.7-2.1-.2-.6-.2-1.2-.5-1.8-2.2-4.2-7.4-5.7-11.6-3.5-1.4.8-3.2 1.8-5.4 3-12 6.8-40.1 22.6-54.4 21-19.6-2.3-59.7 15.3-70.3 20.2-8-.8-16.9-2-22.4-3.1 3.6-5.8 13.7-18.8 41.8-46.9 34.8-34.8 78.1-52.3 92.4-57.4l112.9 112.9-16.2 32.4zm88.9-44.5L468 246.4c-3.3 3.3-8.7 3.3-12.1 0L315.7 106.2l-.5-.5-16.8-16.8c-1.6-1.6-2.5-3.7-2.5-6s.9-4.4 2.5-6.1l24.3-24.3c1.7-1.7 3.9-2.5 6.1-2.5 2.2 0 4.3.8 6 2.5l157.7 157.7c1.6 1.6 2.5 3.7 2.5 6-.1 2.2-1 4.3-2.7 5.9z" fill="#78bbeb"/></svg>