<svg id="Слой_1" xmlns="http://www.w3.org/2000/svg" viewBox="0 0 512 512"><style>.st0{fill:#78bbeb}</style><path class="st0" d="M468 455.8l-67.8-163.6c-1.7-4.2-6.5-6.1-10.7-4.4s-6.1 6.5-4.4 10.7l61.3 147.9-55.9-16.2c-3.7-1.1-7.6.6-9.4 3.9L353 485l-65.8-158.7c75.9-14.6 133.4-81.5 133.4-161.6C420.6 73.8 346.8 0 256 0S91.4 73.8 91.4 164.6c0 36.8 12.1 70.8 32.6 98.2l-80 193c-1.2 2.9-.6 6.2 1.5 8.6 2.1 2.3 5.3 3.3 8.4 2.4l65.9-19.1 33.1 60.1c1.4 2.6 4.2 4.2 7.2 4.2h.5c3.1-.2 5.9-2.1 7.1-5L231 354.1c1.7-4.2-.3-8.9-4.4-10.7-4.2-1.7-8.9.3-10.7 4.4L159 485l-28.1-51c-1.8-3.3-5.8-5-9.4-3.9l-55.9 16.2L135.8 277c30.1 32.2 72.8 52.3 120.2 52.3 4.9 0 9.7-.2 14.5-.6L344.4 507c1.2 2.9 4 4.9 7.1 5h.5c3 0 5.7-1.6 7.2-4.2l33.1-60.1 65.9 19.1c3 .9 6.3-.1 8.4-2.4 2-2.4 2.6-5.7 1.4-8.6zM107.7 164.6c0-81.8 66.5-148.3 148.3-148.3s148.3 66.5 148.3 148.3S337.8 312.9 256 312.9s-148.3-66.5-148.3-148.3z"/><path class="st0" d="M350.4 133.9c-.9-2.9-3.4-5-6.4-5.5l-55-9.2-25.8-49.4c-1.4-2.7-4.2-4.4-7.2-4.4s-5.8 1.7-7.2 4.4L223 119.2l-55 9.2c-3 .5-5.5 2.6-6.4 5.5-.9 2.9-.2 6.1 1.9 8.2l39.1 39.8-8.2 55.1c-.4 3 .8 6 3.3 7.8 2.5 1.8 5.7 2.1 8.4.7l49.9-24.9 49.9 24.9c1.2.6 2.4.9 3.6.9 1.7 0 3.4-.5 4.8-1.6 2.5-1.8 3.7-4.8 3.3-7.8l-8.2-55.1 39.1-39.8c2.1-2.1 2.8-5.3 1.9-8.2zm-55.5 39.5c-1.8 1.8-2.6 4.4-2.3 6.9l6.5 43.7-39.5-19.7c-1.1-.6-2.4-.9-3.6-.9-1.2 0-2.5.3-3.6.9L212.8 224l6.5-43.7c.4-2.5-.5-5.1-2.3-6.9l-30.9-31.5 43.5-7.3c2.5-.4 4.7-2 5.9-4.3L256 91.2l20.4 39.1c1.2 2.3 3.4 3.9 5.9 4.3l43.5 7.3-30.9 31.5z"/><path class="st0" d="M379.8 172.9c-4.5-.6-8.6 2.6-9.2 7-7.6 57.2-56.9 100.3-114.6 100.3-63.7 0-115.6-51.9-115.6-115.6S192.3 49 256 49c57.8 0 107 43.1 114.6 100.3.6 4.5 4.7 7.6 9.2 7 4.5-.6 7.6-4.7 7-9.2C378.1 81.9 321.9 32.7 256 32.7c-72.8 0-131.9 59.2-131.9 131.9s59.1 132 131.9 132c65.9 0 122.1-49.2 130.8-114.5.6-4.5-2.6-8.6-7-9.2z"/></svg>