<svg id="Layer_1" xmlns="http://www.w3.org/2000/svg" viewBox="0 0 490.1 490.1"><style>.st0{fill:#78bbeb}</style><path class="st0" d="M211.7 457.8c0-5.5-4.4-9.9-9.9-9.9H63.7c-24.2 0-43.8-19.7-43.8-43.8V118.6h60v37.3c0 5.5 4.4 9.9 9.9 9.9s9.9-4.4 9.9-9.9v-37.3H219v37.3c0 5.5 4.4 9.9 9.9 9.9s9.9-4.4 9.9-9.9v-37.3h60v19.5c0 5.5 4.4 9.9 9.9 9.9s9.9-4.4 9.9-9.9v-29.4c0-5.5-4.4-9.9-9.9-9.9h-70c-1.7-42.3-36.6-76.3-79.4-76.3S81.6 56.4 79.9 98.8h-70c-5.5 0-9.9 4.4-9.9 9.9v295.4c0 35.1 28.5 63.6 63.6 63.6h138.1c5.6-.1 10-4.6 10-9.9zM159.3 42.3c31.8 0 57.9 25.1 59.6 56.5H99.7c1.7-31.5 27.8-56.5 59.6-56.5z"/><path class="st0" d="M295.8 221.8v11.3h-54.5c-5.5 0-9.9 4.4-9.9 9.9v173.7c0 28.1 22.8 50.9 50.9 50.9h156.9c28.1 0 50.9-22.8 50.9-50.9V242.9c0-5.5-4.4-9.9-9.9-9.9h-54.5v-11.3c0-35.8-29.1-65-65-65-35.8.2-64.9 29.2-64.9 65.1zm120 65.6c5.5 0 9.9-4.4 9.9-9.9v-24.6h44.6v163.8c0 17.2-14 31.1-31.1 31.1H282.3c-17.2 0-31.1-14-31.1-31.1V252.9h44.6v24.6c0 5.5 4.4 9.9 9.9 9.9s9.9-4.4 9.9-9.9v-24.6h90.3v24.6c0 5.5 4.4 9.9 9.9 9.9zm-9.9-65.6v11.3h-90.3v-11.3c0-24.9 20.3-45.2 45.2-45.2 24.8 0 45.1 20.3 45.1 45.2z"/></svg>