<svg xmlns="http://www.w3.org/2000/svg" preserveAspectRatio="xMidYMid" width="55.282" height="19.4"><path d="M52.979 16.611c-1.542 1.855-3.726 2.783-6.551 2.783-1.439 0-2.73-.26-3.873-.78-1.144-.521-2.076-1.24-2.795-2.159a9.905 9.905 0 0 1-1.638-3.147c-.373-1.179-.559-2.453-.559-3.823 0-2.895.802-5.201 2.405-6.918C41.571.851 43.716-.007 46.402-.007c2.808 0 4.991.88 6.551 2.639 1.56 1.76 2.34 4.062 2.34 6.905 0 2.861-.771 5.219-2.314 7.074zM51.095 4.18c-1.17-1.37-2.735-2.055-4.693-2.055-2.063 0-3.644.724-4.744 2.172-1.101 1.448-1.651 3.238-1.651 5.37 0 2.324.585 4.174 1.755 5.553 1.17 1.378 2.733 2.067 4.692 2.067 1.941 0 3.492-.693 4.654-2.08 1.16-1.387 1.741-3.234 1.741-5.54 0-2.288-.585-4.117-1.754-5.487zM32.754 16.637c-1.49 1.838-3.483 2.757-5.979 2.757-2.634 0-4.762-.88-6.382-2.64-1.621-1.759-2.431-4.061-2.431-6.905 0-2.825.802-5.166 2.405-7.021C21.97.972 24.166.045 26.957.045c1.282 0 2.478.221 3.588.663a6.988 6.988 0 0 1 2.833 2.08c.78.946 1.222 2.059 1.326 3.342h-2.392c-.191-1.213-.775-2.188-1.754-2.925-.98-.737-2.18-1.106-3.601-1.106-2.011 0-3.605.689-4.783 2.068-1.179 1.378-1.768 3.247-1.768 5.604 0 2.324.589 4.17 1.768 5.54 1.178 1.37 2.764 2.054 4.757 2.054 1.872 0 3.297-.567 4.276-1.703.979-1.136 1.495-2.64 1.547-4.512h-5.927V9.147h8.111v9.805h-1.56l-.624-2.315zM2.339 4.102v14.85h-2.34V.435h2.678l9.774 15.032V.435h2.366v18.517h-2.756L2.339 4.102z" fill="#78bbeb" fill-rule="evenodd"/></svg>