<svg id="Layer_1" xmlns="http://www.w3.org/2000/svg" viewBox="0 0 490.1 490.1"><style>.st0{fill:#78bbeb}</style><path class="st0" d="M84 87.6c86.8-88.8 229.6-90.5 318.4-3.7l-25.3.3c-5.5.1-9.8 4.5-9.8 10 .1 5.4 4.5 9.8 9.9 9.8h.1l49.2-.6c5.5-.1 9.8-4.5 9.8-10l-.6-49.2c-.1-5.5-4.5-9.9-10-9.8s-9.8 4.5-9.8 10l.3 25.3c-96.6-94.4-252-92.5-346.4 4.1-32.7 33.5-55.1 75.3-64.6 121-9.3 44.5-6.1 90.5 9.2 133.2 1.5 4 5.3 6.6 9.3 6.6 1.1 0 2.2-.2 3.3-.6 5.1-1.8 7.8-7.5 6-12.7-29.3-81.9-9.8-171.5 51-233.7zM73.9 420.4c46.1 45 106.8 69.7 171.1 69.7h2.9c65.5-.8 126.7-26.9 172.4-73.8 32.8-33.5 55.1-75.4 64.6-121.1 9.3-44.5 6.1-90.5-9.2-133.2-1.8-5.1-7.5-7.8-12.7-6-5.1 1.8-7.8 7.5-6 12.7 29.4 81.9 9.9 171.5-50.9 233.7-42.1 43-98.3 67.1-158.5 67.8-60.1.7-116.9-22.1-159.9-64.1l25.3-.3c5.5-.1 9.8-4.5 9.8-10-.1-5.4-4.5-9.8-9.9-9.8h-.1l-49.2.6c-2.6 0-5.1 1.1-7 3-1.8 1.9-2.8 4.4-2.8 7l.6 49.2c.1 5.4 4.5 9.8 9.9 9.8h.1c5.5-.1 9.8-4.5 9.8-10l-.3-25.2z"/><path class="st0" d="M382 188.2c-21.9-52.7-71.5-87.7-127.9-91.1-1-.1-2.1-.1-3.2-.2h-.4c-.6 0-1.2-.1-1.8-.1h-.3c-1.1 0-2.2-.1-3.4-.1-19.5 0-38.5 3.8-56.6 11.3-36.6 15.1-65.1 43.6-80.2 80.2-15.2 36.6-15.2 76.9 0 113.4 23 55.6 76.8 91.6 137 91.6.8 0 1.5 0 2.3-.1.4 0 .9.1 1.3.1.2 0 .4 0 .5-.1.9 0 1.7-.1 2.6-.1h1c.3 0 .5 0 .8-.1 16.5-.9 32.7-4.6 48.2-11 36.6-15.1 65.1-43.6 80.2-80.2s15.2-76.9 0-113.4c-.1 0-.1 0-.1-.1 0 .1 0 .1 0 0zm-188.6-60.7c-11 14.3-19.8 33-25.6 54.7h-34.7c13.5-24.2 34.5-43.3 60.3-54.7zm-69.3 74.6h39.4c-2.3 13.5-3.5 27.9-3.5 43 0 14.9 1.3 29.4 3.8 43h-39.7c-10-28-10-58.1 0-86zm9 105.7h35.3c6.2 22.1 15.6 41.2 27.1 55.8-26.2-11-48.3-30.4-62.4-55.8zM238.8 372c-20.7-6.1-39.1-30.9-49.6-64.2h49.6V372zm0-84h-54.7c-2.8-13.6-4.3-28.1-4.3-43 0-15.1 1.4-29.6 3.8-43h55.2v86zm0-105.7h-50.5c10.1-34.4 28.5-58.7 50.5-64.3v64.3zm118.3-.1h-27.5c-5.1-19.1-12.4-35.8-21.6-49.2 20.3 11.4 37.4 28.3 49.1 49.2zm-98.5-64.3c22 5.7 40.3 30 50.5 64.3h-50.5v-64.3zm0 84.2h55.2c2.5 13.4 3.8 27.8 3.8 43 0 14.9-1.5 29.4-4.3 43h-54.7v-86zm0 169.9v-64.2h49.6c-10.5 33.3-28.9 58.1-49.6 64.2zm47.4-13.9c9.7-13.7 17.6-30.9 23.1-50.3h28c-11.9 21.4-29.5 38.7-51.1 50.3zm60.1-70.1h-32.5c2.5-13.6 3.8-28 3.8-43 0-15.1-1.2-29.5-3.5-43h32.2c10 28 10 58.1 0 86z"/></svg>