<svg id="Слой_1" xmlns="http://www.w3.org/2000/svg" viewBox="0 0 470 470"><style>.st0{fill:#78bbeb}</style><path class="st0" d="M253.5 306.4c4.1 0 7.5-3.4 7.5-7.5s-3.4-7.5-7.5-7.5H16.1c-.6 0-1.1-.5-1.1-1.1V16.1c0-.6.5-1.1 1.1-1.1h361.8c.6 0 1.1.5 1.1 1.1v132c0 4.1 3.4 7.5 7.5 7.5s7.5-3.4 7.5-7.5v-132C394 7.2 386.8 0 377.9 0H16.1C7.2 0 0 7.2 0 16.1v274.2c0 8.9 7.2 16.1 16.1 16.1h135.2v45.3H93.6c-4.1 0-7.5 3.4-7.5 7.5s3.4 7.5 7.5 7.5h159.9c4.1 0 7.5-3.4 7.5-7.5s-3.4-7.5-7.5-7.5h-10.8v-45.3h10.8zm-25.8 45.3h-61.4v-45.3h61.4v45.3z"/><path class="st0" d="M253.5 240.6h-216c-4.1 0-7.5 3.4-7.5 7.5s3.4 7.5 7.5 7.5h216c4.1 0 7.5-3.4 7.5-7.5s-3.4-7.5-7.5-7.5zm200.4-70H292.1c-8.9 0-16.1 7.2-16.1 16.1v267.2c0 8.9 7.2 16.1 16.1 16.1h161.8c8.9 0 16.1-7.2 16.1-16.1V186.7c0-8.9-7.2-16.1-16.1-16.1zm-162.9 45h164V395H291V215.6zm1.1-30h161.8c.6 0 1.1.5 1.1 1.1v13.9H291v-13.9c0-.6.5-1.1 1.1-1.1zM453.9 455H292.1c-.6 0-1.1-.5-1.1-1.1V410h164v43.9c0 .6-.5 1.1-1.1 1.1z"/><path class="st0" d="M388 425h-30c-4.1 0-7.5 3.4-7.5 7.5s3.4 7.5 7.5 7.5h30c4.1 0 7.5-3.4 7.5-7.5s-3.4-7.5-7.5-7.5z"/></svg>