<svg id="Capa_1" xmlns="http://www.w3.org/2000/svg" viewBox="0 0 448 448"><style>.st0{fill:#78bbeb}</style><path class="st0" d="M440 324h-8.2c-4.1-108.3-91.5-195.7-199.8-199.8V116h4c11 0 20-9 20-20s-9-20-20-20h-24c-11 0-20 9-20 20s9 20 20 20h4v8.2C107.7 128.3 20.3 215.7 16.2 324H8c-4.4 0-8 3.6-8 8s3.6 8 8 8h9.8l3.3 10.8C24.4 362.7 36.6 372 49 372h350c12.4 0 24.6-9.3 27.9-21.3L430 340h10c4.4 0 8-3.6 8-8s-3.6-8-8-8zM208 96c0-2.2 1.8-4 4-4h24c2.2 0 4 1.8 4 4s-1.8 4-4 4h-24c-2.2 0-4-1.8-4-4zm203.5 250.5c-1.4 5-7.3 9.5-12.5 9.5H49c-5.2 0-11.1-4.5-12.5-9.5 0-.1-.1-.2-.1-.3l-1.9-6.2H352c4.4 0 8-3.6 8-8s-3.6-8-8-8H32.2c4.2-102.2 88.6-184 191.8-184s187.6 81.8 191.8 184H384c-4.4 0-8 3.6-8 8s3.6 8 8 8h29.3l-1.8 6.3v.2z"/><path class="st0" d="M319.3 184c-3.7-2.4-8.7-1.3-11.1 2.4s-1.3 8.7 2.4 11.1c15.2 9.8 28.6 22.1 39.8 36.4 1.6 2 3.9 3.1 6.3 3.1 1.7 0 3.4-.5 4.9-1.7 3.5-2.7 4.1-7.7 1.4-11.2-12.2-15.8-26.9-29.2-43.7-40.1zM291 169.2c-6.5-2.7-13.2-5-19.9-6.8-4.3-1.2-8.7 1.3-9.8 5.6-1.2 4.3 1.3 8.7 5.6 9.8 6.1 1.7 12.2 3.8 18.1 6.2 1 .4 2 .6 3 .6 3.1 0 6.1-1.9 7.4-5 1.7-4-.3-8.7-4.4-10.4z"/></svg>