<svg id="Layer_1" xmlns="http://www.w3.org/2000/svg" viewBox="0 0 489.8 489.8"><style>.st0{fill:#78bbeb}</style><path class="st0" d="M462.1 121.3H310.5V9.9c0-5.5-4.4-9.9-9.9-9.9H27.7c-5.5 0-9.9 4.4-9.9 9.9v470c0 5.5 4.4 9.9 9.9 9.9h434.4c5.5 0 9.9-4.4 9.9-9.9V131.2c0-5.5-4.4-9.9-9.9-9.9zm-171.4 9.9v338.9H37.6V19.8h253.1v111.4zM452.2 470H310.5V141h141.7v329z"/><path class="st0" d="M349.1 191.3h64.5c5.5 0 9.9-4.4 9.9-9.9s-4.4-9.9-9.9-9.9h-64.5c-5.5 0-9.9 4.4-9.9 9.9 0 5.4 4.4 9.9 9.9 9.9zm0 49.7h64.5c5.5 0 9.9-4.4 9.9-9.9s-4.4-9.9-9.9-9.9h-64.5c-5.5 0-9.9 4.4-9.9 9.9s4.4 9.9 9.9 9.9zm0 49.6h64.5c5.5 0 9.9-4.4 9.9-9.9s-4.4-9.9-9.9-9.9h-64.5c-5.5 0-9.9 4.4-9.9 9.9s4.4 9.9 9.9 9.9zm0 49.7h64.5c5.5 0 9.9-4.4 9.9-9.9s-4.4-9.9-9.9-9.9h-64.5c-5.5 0-9.9 4.4-9.9 9.9s4.4 9.9 9.9 9.9zm0 49.6h64.5c5.5 0 9.9-4.4 9.9-9.9s-4.4-9.9-9.9-9.9h-64.5c-5.5 0-9.9 4.4-9.9 9.9 0 5.4 4.4 9.9 9.9 9.9zm0 49.7h64.5c5.5 0 9.9-4.4 9.9-9.9s-4.4-9.9-9.9-9.9h-64.5c-5.5 0-9.9 4.4-9.9 9.9s4.4 9.9 9.9 9.9zM83.5 97c5.5 0 9.9-4.4 9.9-9.9V65.2c0-5.5-4.4-9.9-9.9-9.9s-9.9 4.4-9.9 9.9v21.9c0 5.5 4.4 9.9 9.9 9.9zm53.8 0c5.5 0 9.9-4.4 9.9-9.9V65.2c0-5.5-4.4-9.9-9.9-9.9s-9.9 4.4-9.9 9.9v21.9c0 5.5 4.4 9.9 9.9 9.9zm53.7 0c5.5 0 9.9-4.4 9.9-9.9V65.2c0-5.5-4.4-9.9-9.9-9.9s-9.9 4.4-9.9 9.9v21.9c0 5.5 4.5 9.9 9.9 9.9zm53.8 0c5.5 0 9.9-4.4 9.9-9.9V65.2c0-5.5-4.4-9.9-9.9-9.9s-9.9 4.4-9.9 9.9v21.9c0 5.5 4.4 9.9 9.9 9.9zM83.5 164.8c5.5 0 9.9-4.4 9.9-9.9v-22c0-5.5-4.4-9.9-9.9-9.9s-9.9 4.4-9.9 9.9v22c0 5.4 4.4 9.9 9.9 9.9zm53.8 0c5.5 0 9.9-4.4 9.9-9.9v-22c0-5.5-4.4-9.9-9.9-9.9s-9.9 4.4-9.9 9.9v22c0 5.4 4.4 9.9 9.9 9.9zm53.7 0c5.5 0 9.9-4.4 9.9-9.9v-22c0-5.5-4.4-9.9-9.9-9.9s-9.9 4.4-9.9 9.9v22c0 5.4 4.5 9.9 9.9 9.9zm53.8 0c5.5 0 9.9-4.4 9.9-9.9v-22c0-5.5-4.4-9.9-9.9-9.9s-9.9 4.4-9.9 9.9v22c0 5.4 4.4 9.9 9.9 9.9zM83.5 232.5c5.5 0 9.9-4.4 9.9-9.9v-21.9c0-5.5-4.4-9.9-9.9-9.9s-9.9 4.4-9.9 9.9v21.9c0 5.5 4.4 9.9 9.9 9.9zm53.8 0c5.5 0 9.9-4.4 9.9-9.9v-21.9c0-5.5-4.4-9.9-9.9-9.9s-9.9 4.4-9.9 9.9v21.9c0 5.5 4.4 9.9 9.9 9.9zm53.7 0c5.5 0 9.9-4.4 9.9-9.9v-21.9c0-5.5-4.4-9.9-9.9-9.9s-9.9 4.4-9.9 9.9v21.9c0 5.5 4.5 9.9 9.9 9.9zm53.8 0c5.5 0 9.9-4.4 9.9-9.9v-21.9c0-5.5-4.4-9.9-9.9-9.9s-9.9 4.4-9.9 9.9v21.9c0 5.5 4.4 9.9 9.9 9.9zM83.5 300.3c5.5 0 9.9-4.4 9.9-9.9v-21.9c0-5.5-4.4-9.9-9.9-9.9s-9.9 4.4-9.9 9.9v21.9c0 5.4 4.4 9.9 9.9 9.9zm53.8 0c5.5 0 9.9-4.4 9.9-9.9v-21.9c0-5.5-4.4-9.9-9.9-9.9s-9.9 4.4-9.9 9.9v21.9c0 5.4 4.4 9.9 9.9 9.9zm53.7 0c5.5 0 9.9-4.4 9.9-9.9v-21.9c0-5.5-4.4-9.9-9.9-9.9s-9.9 4.4-9.9 9.9v21.9c0 5.4 4.5 9.9 9.9 9.9zm53.8 0c5.5 0 9.9-4.4 9.9-9.9v-21.9c0-5.5-4.4-9.9-9.9-9.9s-9.9 4.4-9.9 9.9v21.9c0 5.4 4.4 9.9 9.9 9.9zM83.5 368c5.5 0 9.9-4.4 9.9-9.9v-21.9c0-5.5-4.4-9.9-9.9-9.9s-9.9 4.4-9.9 9.9v21.9c0 5.5 4.4 9.9 9.9 9.9zm53.8 0c5.5 0 9.9-4.4 9.9-9.9v-21.9c0-5.5-4.4-9.9-9.9-9.9s-9.9 4.4-9.9 9.9v21.9c0 5.5 4.4 9.9 9.9 9.9zm53.7 0c5.5 0 9.9-4.4 9.9-9.9v-21.9c0-5.5-4.4-9.9-9.9-9.9s-9.9 4.4-9.9 9.9v21.9c0 5.5 4.5 9.9 9.9 9.9zm53.8 0c5.5 0 9.9-4.4 9.9-9.9v-21.9c0-5.5-4.4-9.9-9.9-9.9s-9.9 4.4-9.9 9.9v21.9c0 5.5 4.4 9.9 9.9 9.9zM83.5 435.8c5.5 0 9.9-4.4 9.9-9.9v-22c0-5.5-4.4-9.9-9.9-9.9s-9.9 4.4-9.9 9.9v22c0 5.4 4.4 9.9 9.9 9.9zm53.8 0c5.5 0 9.9-4.4 9.9-9.9v-22c0-5.5-4.4-9.9-9.9-9.9s-9.9 4.4-9.9 9.9v22c0 5.4 4.4 9.9 9.9 9.9zm53.7 0c5.5 0 9.9-4.4 9.9-9.9v-22c0-5.5-4.4-9.9-9.9-9.9s-9.9 4.4-9.9 9.9v22c0 5.4 4.5 9.9 9.9 9.9zm53.8 0c5.5 0 9.9-4.4 9.9-9.9v-22c0-5.5-4.4-9.9-9.9-9.9s-9.9 4.4-9.9 9.9v22c0 5.4 4.4 9.9 9.9 9.9z"/></svg>