<?xml version="1.0" encoding="utf-8"?>
<!-- Generator: Adobe Illustrator 19.1.0, SVG Export Plug-In . SVG Version: 6.00 Build 0)  -->
<svg version="1.1" id="Слой_1" xmlns="http://www.w3.org/2000/svg" xmlns:xlink="http://www.w3.org/1999/xlink" x="0px" y="0px"
	 viewBox="479 -523.1 1200 1200" style="enable-background:new 479 -523.1 1200 1200;" xml:space="preserve">
<style type="text/css">
	.st0{fill:none;stroke:#E2E2E2;stroke-miterlimit:10;}
	.st1{fill:#4C5E90;}
	.st2{fill:#FFFFFF;}
	.st3{fill:#D25444;}
	.st4{fill:#4C7195;}
	.st5{fill:#4C779B;}
	.st6{fill:#ECB262;}
	.st7{fill:#43A7DB;}
	.st8{fill:#BA4F46;}
	.st9{fill:#EFEFEF;}
	.st10{fill:#C9C8C8;}
	.st11{fill:#E6E6E6;}
	.st12{fill:#AFAFAF;}
	.st13{fill:none;stroke:#EFEFEF;stroke-width:2;stroke-miterlimit:10;}
	.st14{fill:#72B0DD;}
	.st15{opacity:0.35;}
	.st16{clip-path:url(#SVGID_2_);fill:#72B0DD;}
	.st17{clip-path:url(#SVGID_4_);fill:#72B0DD;}
	.st18{clip-path:url(#SVGID_6_);fill:#72B0DD;}
	.st19{clip-path:url(#SVGID_8_);fill:#72B0DD;}
	.st20{clip-path:url(#SVGID_10_);fill:#72B0DD;}
	.st21{clip-path:url(#SVGID_12_);fill:#72B0DD;}
	.st22{fill:#5C5C5C;}
	.st23{clip-path:url(#SVGID_14_);fill:#353535;}
	.st24{clip-path:url(#SVGID_16_);fill:#353535;}
	.st25{clip-path:url(#SVGID_18_);fill:#353535;}
	.st26{clip-path:url(#SVGID_20_);fill:#353535;}
	.st27{clip-path:url(#SVGID_22_);fill:#353535;}
	.st28{clip-path:url(#SVGID_24_);fill:#353535;}
	.st29{fill:none;stroke:#C9C8C8;stroke-linecap:round;stroke-linejoin:round;stroke-miterlimit:10;}
	.st30{fill:none;stroke:#72B0DD;stroke-width:2;stroke-linecap:round;stroke-linejoin:round;stroke-miterlimit:10;}
	.st31{fill:none;stroke:#72B0DD;stroke-width:2.5;stroke-linecap:round;stroke-linejoin:round;stroke-miterlimit:10;}
	.st32{fill:none;stroke:#40434B;stroke-width:2.5;stroke-linecap:round;stroke-linejoin:round;stroke-miterlimit:10;}
	.st33{fill:#24B5E9;}
	.st34{fill:none;stroke:#40434B;stroke-width:2;stroke-linecap:round;stroke-linejoin:round;stroke-miterlimit:10;}
	.st35{fill:none;stroke:#AFAFAF;stroke-width:2;stroke-miterlimit:10;}
	.st36{fill:none;stroke:#72B0DD;stroke-width:2;stroke-miterlimit:10;}
	.st37{fill:none;stroke:#72B0DD;stroke-width:4;stroke-linecap:round;stroke-linejoin:round;stroke-miterlimit:10;}
	.st38{fill:none;stroke:#FFFFFF;stroke-linecap:round;stroke-miterlimit:10;}
	.st39{fill:none;stroke:#AFAFAF;stroke-width:2;stroke-linecap:round;stroke-miterlimit:10;}
	.st40{fill:none;stroke:#FFFFFF;stroke-width:2;stroke-linecap:round;stroke-linejoin:round;stroke-miterlimit:10;}
	.st41{fill:none;stroke:#E2E2E2;stroke-width:2;stroke-linecap:round;stroke-linejoin:round;stroke-miterlimit:10;}
	.st42{fill:none;stroke:#EFEFEF;stroke-width:2;stroke-linecap:round;stroke-linejoin:round;stroke-miterlimit:10;}
	.st43{fill:none;stroke:#72B0DD;stroke-linecap:round;stroke-linejoin:round;stroke-miterlimit:10;}
	.st44{fill:#72B0DD;stroke:#72B0DD;stroke-width:2;stroke-linecap:round;stroke-linejoin:round;stroke-miterlimit:10;}
	.st45{fill:#EFEFEF;stroke:#EFEFEF;stroke-miterlimit:10;}
	.st46{fill:none;stroke:#EFEFEF;stroke-width:2;stroke-linecap:round;stroke-miterlimit:10;}
	.st47{fill:none;stroke:#E2E2E2;stroke-width:2;stroke-miterlimit:10;}
	.st48{fill:none;stroke:#EDEDED;stroke-width:2;stroke-miterlimit:10;}
	.st49{fill:none;stroke:#C9C8C8;stroke-width:2;stroke-linecap:round;stroke-linejoin:round;stroke-miterlimit:10;}
	.st50{fill:none;stroke:#AFAFAF;stroke-linecap:round;stroke-miterlimit:10;}
	.st51{fill:none;stroke:#72B0DD;stroke-width:2;stroke-linecap:round;stroke-miterlimit:10;}
	
		.st52{fill:none;stroke:#72B0DD;stroke-width:2.5;stroke-linecap:round;stroke-linejoin:round;stroke-miterlimit:10;stroke-dasharray:1,1,1,1,1,6;}
	.st53{fill:none;stroke:#72B0DD;stroke-width:2.5;stroke-linecap:round;stroke-linejoin:round;}
	
		.st54{fill:none;stroke:#72B0DD;stroke-width:2.5;stroke-linecap:round;stroke-linejoin:round;stroke-dasharray:0.8945,0.8945,0.8945,5.3672;}
	
		.st55{fill:none;stroke:#72B0DD;stroke-width:2.5;stroke-linecap:round;stroke-linejoin:round;stroke-dasharray:0.8945,0.8945,0.8945,0.8945,0.8945,5.3672;}
	.st56{enable-background:new    ;}
	.st57{fill:#201600;}
</style>
<g id="Layer_1">
	<g id="XMLID_242_">
		<g id="XMLID_39_">
			<rect id="XMLID_3_" x="529" y="-473.1" class="st0" width="110" height="110"/>
			<rect id="XMLID_4_" x="639" y="-473.1" class="st0" width="110" height="110"/>
			<rect id="XMLID_5_" x="749" y="-473.1" class="st0" width="110" height="110"/>
			<rect id="XMLID_6_" x="859" y="-473.1" class="st0" width="110" height="110"/>
			<rect id="XMLID_9_" x="969" y="-473.1" class="st0" width="110" height="110"/>
			<rect id="XMLID_8_" x="1079" y="-473.1" class="st0" width="110" height="110"/>
			<rect id="XMLID_7_" x="1189" y="-473.1" class="st0" width="110" height="110"/>
			<rect id="XMLID_10_" x="1299" y="-473.1" class="st0" width="110" height="110"/>
			<rect id="XMLID_11_" x="1409" y="-473.1" class="st0" width="110" height="110"/>
			<rect id="XMLID_12_" x="1519" y="-473.1" class="st0" width="110" height="110"/>
		</g>
		<g id="XMLID_46_">
			<rect id="XMLID_68_" x="529" y="-363.1" class="st0" width="110" height="110"/>
			<rect id="XMLID_67_" x="639" y="-363.1" class="st0" width="110" height="110"/>
			<rect id="XMLID_66_" x="749" y="-363.1" class="st0" width="110" height="110"/>
			<rect id="XMLID_65_" x="859" y="-363.1" class="st0" width="110" height="110"/>
			<rect id="XMLID_64_" x="969" y="-363.1" class="st0" width="110" height="110"/>
			<rect id="XMLID_63_" x="1079" y="-363.1" class="st0" width="110" height="110"/>
			<rect id="XMLID_62_" x="1189" y="-363.1" class="st0" width="110" height="110"/>
			<rect id="XMLID_55_" x="1299" y="-363.1" class="st0" width="110" height="110"/>
			<rect id="XMLID_49_" x="1409" y="-363.1" class="st0" width="110" height="110"/>
			<rect id="XMLID_48_" x="1519" y="-363.1" class="st0" width="110" height="110"/>
		</g>
		<g id="XMLID_70_">
			<rect id="XMLID_83_" x="529" y="-253.1" class="st0" width="110" height="110"/>
			<rect id="XMLID_82_" x="639" y="-253.1" class="st0" width="110" height="110"/>
			<rect id="XMLID_79_" x="749" y="-253.1" class="st0" width="110" height="110"/>
			<rect id="XMLID_78_" x="859" y="-253.1" class="st0" width="110" height="110"/>
			<rect id="XMLID_76_" x="969" y="-253.1" class="st0" width="110" height="110"/>
			<rect id="XMLID_75_" x="1079" y="-253.1" class="st0" width="110" height="110"/>
			<rect id="XMLID_74_" x="1189" y="-253.1" class="st0" width="110" height="110"/>
			<rect id="XMLID_73_" x="1299" y="-253.1" class="st0" width="110" height="110"/>
			<rect id="XMLID_72_" x="1409" y="-253.1" class="st0" width="110" height="110"/>
			<rect id="XMLID_71_" x="1519" y="-253.1" class="st0" width="110" height="110"/>
		</g>
		<g id="XMLID_102_">
			<rect id="XMLID_113_" x="529" y="-143.1" class="st0" width="110" height="110"/>
			<rect id="XMLID_112_" x="639" y="-143.1" class="st0" width="110" height="110"/>
			<rect id="XMLID_111_" x="749" y="-143.1" class="st0" width="110" height="110"/>
			<rect id="XMLID_110_" x="859" y="-143.1" class="st0" width="110" height="110"/>
			<rect id="XMLID_109_" x="969" y="-143.1" class="st0" width="110" height="110"/>
			<rect id="XMLID_108_" x="1079" y="-143.1" class="st0" width="110" height="110"/>
			<rect id="XMLID_107_" x="1189" y="-143.1" class="st0" width="110" height="110"/>
			<rect id="XMLID_106_" x="1299" y="-143.1" class="st0" width="110" height="110"/>
			<rect id="XMLID_105_" x="1409" y="-143.1" class="st0" width="110" height="110"/>
			<rect id="XMLID_103_" x="1519" y="-143.1" class="st0" width="110" height="110"/>
		</g>
		<g id="XMLID_85_">
			<rect id="XMLID_101_" x="529" y="-33.1" class="st0" width="110" height="110"/>
			<rect id="XMLID_98_" x="639" y="-33.1" class="st0" width="110" height="110"/>
			<rect id="XMLID_97_" x="749" y="-33.1" class="st0" width="110" height="110"/>
			<rect id="XMLID_96_" x="859" y="-33.1" class="st0" width="110" height="110"/>
			<rect id="XMLID_95_" x="969" y="-33.1" class="st0" width="110" height="110"/>
			<rect id="XMLID_94_" x="1079" y="-33.1" class="st0" width="110" height="110"/>
			<rect id="XMLID_91_" x="1189" y="-33.1" class="st0" width="110" height="110"/>
			<rect id="XMLID_90_" x="1299" y="-33.1" class="st0" width="110" height="110"/>
			<rect id="XMLID_89_" x="1409" y="-33.1" class="st0" width="110" height="110"/>
			<rect id="XMLID_88_" x="1519" y="-33.1" class="st0" width="110" height="110"/>
		</g>
		<g id="XMLID_287_">
			<rect id="XMLID_297_" x="529" y="77.4" class="st0" width="110" height="110"/>
			<rect id="XMLID_296_" x="639" y="77.4" class="st0" width="110" height="110"/>
			<rect id="XMLID_295_" x="749" y="77.4" class="st0" width="110" height="110"/>
			<rect id="XMLID_294_" x="859" y="77.4" class="st0" width="110" height="110"/>
			<rect id="XMLID_293_" x="969" y="77.4" class="st0" width="110" height="110"/>
			<rect id="XMLID_292_" x="1079" y="77.4" class="st0" width="110" height="110"/>
			<rect id="XMLID_291_" x="1189" y="77.4" class="st0" width="110" height="110"/>
			<rect id="XMLID_290_" x="1299" y="77.4" class="st0" width="110" height="110"/>
			<rect id="XMLID_289_" x="1409" y="77.4" class="st0" width="110" height="110"/>
			<rect id="XMLID_288_" x="1519" y="77.4" class="st0" width="110" height="110"/>
		</g>
		<g id="XMLID_276_">
			<rect id="XMLID_286_" x="529" y="187.4" class="st0" width="110" height="110"/>
			<rect id="XMLID_285_" x="639" y="187.4" class="st0" width="110" height="110"/>
			<rect id="XMLID_284_" x="749" y="187.4" class="st0" width="110" height="110"/>
			<rect id="XMLID_283_" x="859" y="187.4" class="st0" width="110" height="110"/>
			<rect id="XMLID_282_" x="969" y="187.4" class="st0" width="110" height="110"/>
			<rect id="XMLID_281_" x="1079" y="187.4" class="st0" width="110" height="110"/>
			<rect id="XMLID_280_" x="1189" y="187.4" class="st0" width="110" height="110"/>
			<rect id="XMLID_279_" x="1299" y="187.4" class="st0" width="110" height="110"/>
			<rect id="XMLID_278_" x="1409" y="187.4" class="st0" width="110" height="110"/>
			<rect id="XMLID_277_" x="1519" y="187.4" class="st0" width="110" height="110"/>
		</g>
		<g id="XMLID_265_">
			<rect id="XMLID_275_" x="529" y="297.4" class="st0" width="110" height="110"/>
			<rect id="XMLID_274_" x="639" y="297.4" class="st0" width="110" height="110"/>
			<rect id="XMLID_273_" x="749" y="297.4" class="st0" width="110" height="110"/>
			<rect id="XMLID_272_" x="859" y="297.4" class="st0" width="110" height="110"/>
			<rect id="XMLID_271_" x="969" y="297.4" class="st0" width="110" height="110"/>
			<rect id="XMLID_270_" x="1079" y="297.4" class="st0" width="110" height="110"/>
			<rect id="XMLID_269_" x="1189" y="297.4" class="st0" width="110" height="110"/>
			<rect id="XMLID_268_" x="1299" y="297.4" class="st0" width="110" height="110"/>
			<rect id="XMLID_267_" x="1409" y="297.4" class="st0" width="110" height="110"/>
			<rect id="XMLID_266_" x="1519" y="297.4" class="st0" width="110" height="110"/>
		</g>
		<g id="XMLID_254_">
			<rect id="XMLID_264_" x="529" y="407.4" class="st0" width="110" height="110"/>
			<rect id="XMLID_263_" x="639" y="407.4" class="st0" width="110" height="110"/>
			<rect id="XMLID_262_" x="749" y="407.4" class="st0" width="110" height="110"/>
			<rect id="XMLID_261_" x="859" y="407.4" class="st0" width="110" height="110"/>
			<rect id="XMLID_260_" x="969" y="407.4" class="st0" width="110" height="110"/>
			<rect id="XMLID_259_" x="1079" y="407.4" class="st0" width="110" height="110"/>
			<rect id="XMLID_258_" x="1189" y="407.4" class="st0" width="110" height="110"/>
			<rect id="XMLID_257_" x="1299" y="407.4" class="st0" width="110" height="110"/>
			<rect id="XMLID_256_" x="1409" y="407.4" class="st0" width="110" height="110"/>
			<rect id="XMLID_255_" x="1519" y="407.4" class="st0" width="110" height="110"/>
		</g>
		<g id="XMLID_243_">
			<rect id="XMLID_253_" x="529" y="517.4" class="st0" width="110" height="110"/>
			<rect id="XMLID_252_" x="639" y="517.4" class="st0" width="110" height="110"/>
			<rect id="XMLID_251_" x="749" y="517.4" class="st0" width="110" height="110"/>
			<rect id="XMLID_250_" x="859" y="517.4" class="st0" width="110" height="110"/>
			<rect id="XMLID_249_" x="969" y="517.4" class="st0" width="110" height="110"/>
			<rect id="XMLID_248_" x="1079" y="517.4" class="st0" width="110" height="110"/>
			<rect id="XMLID_247_" x="1189" y="517.4" class="st0" width="110" height="110"/>
			<rect id="XMLID_246_" x="1299" y="517.4" class="st0" width="110" height="110"/>
			<rect id="XMLID_245_" x="1409" y="517.4" class="st0" width="110" height="110"/>
			<rect id="XMLID_244_" x="1519" y="517.4" class="st0" width="110" height="110"/>
		</g>
	</g>
	<g id="XMLID_104_">
		<path id="XMLID_61_" class="st1" d="M584-430.1c6.6,0,12,5.4,12,12s-5.4,12-12,12s-12-5.4-12-12S577.4-430.1,584-430.1z"/>
		<path id="XMLID_60_" class="st2" d="M585.5-421.8h1.5v-2.3h-1.8l0,0c-2.2,0.1-2.7,1.3-2.7,2.6l0,0v1.1H581v2.2h1.5v6h2.3v-6h1.8
			l0.3-2.2h-2.2v-0.7C584.7-421.5,585-421.8,585.5-421.8z"/>
	</g>
	<g id="XMLID_99_">
		<path id="XMLID_59_" class="st3" d="M913.2-430.2c6.6,0,12,5.4,12,12s-5.4,12-12,12s-12-5.4-12-12S906.6-430.2,913.2-430.2z"/>
		<g id="XMLID_100_">
			<polygon id="XMLID_58_" class="st2" points="919.3,-420.2 919.3,-418.9 920.6,-418.9 920.6,-417.5 919.3,-417.5 919.3,-416.2 
				917.9,-416.2 917.9,-417.5 916.6,-417.5 916.6,-418.9 917.9,-418.9 917.9,-420.2 			"/>
			<path id="XMLID_57_" class="st2" d="M907.1-414.8c-1.8-1.8-1.8-5,0.1-6.7c1.4-1.4,3.3-1.7,5-1l0.7,0.4l0.7,0.5l-1.2,1.2l-0.5-0.3
				c-1-0.7-2.6-0.5-3.5,0.5c-1.1,1.1-1.2,3.1,0,4.3c1.1,1.2,3.1,1.2,4.2,0c0.3-0.3,0.6-0.7,0.7-1.2v-0.2h-2.7v-1.5h4.3l0.1,0.4v1
				c-0.1,1-0.5,1.9-1.1,2.6C912.1-413,908.9-413,907.1-414.8z"/>
		</g>
	</g>
	<g id="XMLID_92_">
		<path id="XMLID_56_" class="st4" d="M804-430.2c6.6,0,12,5.4,12,12s-5.4,12-12,12s-12-5.4-12-12S797.4-430.2,804-430.2z"/>
		<path id="XMLID_93_" class="st2" d="M808.1-425h-8.3c-1.4,0-2.6,1.2-2.6,2.6v8.3c0,1.4,1.2,2.6,2.6,2.6h8.3c1.4,0,2.6-1.2,2.6-2.6
			v-8.3C810.7-423.8,809.6-425,808.1-425z M809-423.5h0.3v2.2H807v-2.2C807-423.4,809-423.5,809-423.5z M804-420.5
			c1.9,0,2.3,1.8,2.3,2.3c0,1.3-1,2.3-2.3,2.3s-2.3-1-2.3-2.3C801.7-418.7,802.1-420.5,804-420.5z M809.3-414.2
			c0,0.7-0.6,1.3-1.3,1.3h-8c-0.7,0-1.3-0.6-1.3-1.3v-5.5h1.9c-0.2,0.4-0.3,1-0.3,1.5c0,2,1.7,3.7,3.7,3.7s3.7-1.7,3.7-3.7
			c0-0.5-0.1-1.1-0.3-1.5h1.8L809.3-414.2L809.3-414.2z"/>
	</g>
	<g id="XMLID_86_">
		<path id="XMLID_51_" class="st5" d="M694-430.1c6.6,0,12,5.4,12,12s-5.4,12-12,12s-12-5.4-12-12S687.4-430.1,694-430.1z"/>
		<path id="XMLID_87_" class="st2" d="M688.8-413.6h2.2v-7.5h-2.2V-413.6z M697.5-421.4c-1.1,0-2.1,0.4-2.7,1.3v-1h-2.3v7.5h2.3
			v-4.1c0-0.9,0.8-1.7,1.8-1.7s1.2,0.8,1.2,1.7v4.1h2.2v-4.2C700-420.8,698.6-421.4,697.5-421.4z M689.9-421.9
			c0.6,0,1.1-0.5,1.1-1.1c0-0.6-0.5-1.1-1.1-1.1c-0.6,0-1.1,0.5-1.1,1.1C688.8-422.4,689.3-421.9,689.9-421.9z"/>
	</g>
	<g id="XMLID_80_">
		<path id="XMLID_47_" class="st6" d="M1134-430.2c6.6,0,12,5.4,12,12s-5.4,12-12,12s-12-5.4-12-12S1127.4-430.2,1134-430.2z"/>
		<path id="XMLID_81_" class="st2" d="M1131-416.7c-0.8,0-1.5,0.7-1.5,1.5c0,0.8,0.7,1.5,1.5,1.5s1.5-0.7,1.5-1.5
			C1132.5-416.1,1131.8-416.7,1131-416.7z M1130.6-420.5c-0.6,0-1.1,0.5-1.1,1.1c0,0.6,0.5,1.1,1.1,1.1c2,0,3.6,1.6,3.6,3.6
			c0,0.6,0.5,1.1,1.1,1.1s1.1-0.5,1.1-1.1C1136.2-417.9,1133.7-420.5,1130.6-420.5z M1130.6-424.2c-0.6,0-1.1,0.5-1.1,1.1
			s0.5,1.1,1.1,1.1c4,0,7.3,3.3,7.3,7.3c0,0.6,0.5,1.1,1.1,1.1c0.6,0,1.1-0.5,1.1-1.1C1140-420,1135.8-424.2,1130.6-424.2z"/>
	</g>
	<g id="XMLID_77_">
		<path id="XMLID_43_" class="st7" d="M1255.3-415.5c0.2-0.8,0.3-1.6,0.3-2.4c0-6.2-5.1-11.3-11.4-11.3c-0.7,0-1.3,0.1-1.9,0.2
			c-1-0.6-2.2-1-3.5-1c-3.7,0-6.6,2.9-6.6,6.5c0,1.2,0.3,2.3,0.9,3.3c-0.2,0.7-0.2,1.5-0.2,2.3c0,6.2,5.1,11.1,11.4,11.1
			c0.7,0,1.4-0.1,2.1-0.2c0.9,0.5,2,1,3.1,1c3.7,0,6.6-2.9,6.6-6.5C1256-413.7,1255.7-414.7,1255.3-415.5z"/>
		<path id="XMLID_13_" class="st2" d="M1249.3-413.4c-0.5,0.6-1.1,1.1-1.9,1.5c-0.9,0.3-1.9,0.5-3,0.5c-1.4,0-2.6-0.2-3.5-0.7
			c-0.6-0.3-1.2-0.8-1.6-1.4c-0.4-0.6-0.6-1.1-0.6-1.7c0-0.3,0.1-0.6,0.4-0.8c0.2-0.2,0.6-0.3,0.9-0.3s0.6,0.1,0.8,0.3
			c0.2,0.2,0.4,0.5,0.5,0.8c0.2,0.4,0.4,0.8,0.6,1c0.2,0.3,0.5,0.5,0.9,0.7c0.4,0.2,0.9,0.3,1.5,0.3c0.9,0,1.5-0.2,2.1-0.6
			c0.5-0.4,0.8-0.8,0.8-1.4c0-0.4-0.1-0.8-0.4-1c-0.3-0.3-0.7-0.5-1.1-0.6c-0.5-0.1-1.1-0.3-1.8-0.5c-1-0.2-1.9-0.5-2.6-0.8
			c-0.7-0.3-1.2-0.7-1.6-1.2s-0.6-1.1-0.6-1.9c0-0.7,0.2-1.4,0.6-1.9c0.4-0.6,1-1,1.8-1.3c0.8-0.3,1.8-0.5,2.9-0.5
			c0.9,0,1.6,0.1,2.3,0.3c0.6,0.2,1.2,0.5,1.6,0.8c0.4,0.3,0.7,0.7,0.9,1c0.2,0.3,0.3,0.7,0.3,1.1c0,0.3-0.1,0.6-0.4,0.9
			c-0.2,0.2-0.5,0.4-0.9,0.4c-0.3,0-0.6-0.1-0.7-0.2c-0.2-0.2-0.3-0.4-0.6-0.7c-0.3-0.5-0.6-0.9-0.9-1.1c-0.4-0.3-0.9-0.4-1.7-0.4
			c-0.7,0-1.3,0.2-1.8,0.5c-0.5,0.3-0.7,0.7-0.7,1.1c0,0.3,0.1,0.5,0.2,0.7c0.2,0.2,0.4,0.3,0.6,0.5c0.3,0.1,0.5,0.2,0.8,0.3
			c0.3,0.1,0.7,0.2,1.4,0.3c0.8,0.2,1.5,0.4,2.2,0.6c0.6,0.2,1.2,0.5,1.7,0.7c0.5,0.3,0.8,0.7,1.1,1.1c0.3,0.5,0.4,1,0.4,1.7
			C1250-414.7,1249.8-414,1249.3-413.4z"/>
	</g>
	<g id="XMLID_15_">
		<path id="XMLID_42_" class="st8" d="M1023.5-430.1c6.6,0,12,5.4,12,12s-5.4,12-12,12s-12-5.4-12-12S1016.8-430.1,1023.5-430.1z"/>
		<path id="XMLID_17_" class="st2" d="M1023.2-420.3c0.4,0,0.7-0.1,0.9-0.3c0.2-0.2,0.3-0.4,0.3-0.7v-1.8c0-0.3-0.1-0.5-0.3-0.7
			c-0.2-0.2-0.5-0.3-0.9-0.3s-0.7,0.1-0.9,0.2c-0.2,0.2-0.3,0.4-0.3,0.6v1.8c0,0.3,0.1,0.5,0.3,0.7
			C1022.5-420.5,1022.8-420.3,1023.2-420.3z M1022.8-423.1c0-0.1,0-0.1,0.1-0.2c0.1-0.1,0.2-0.1,0.3-0.1s0.2,0,0.3,0.1
			c0.1,0.1,0.1,0.1,0.1,0.2v1.7c0,0.1,0,0.2-0.1,0.2c-0.1,0.1-0.2,0.1-0.3,0.1s-0.2,0-0.3-0.1s-0.1-0.1-0.1-0.2V-423.1L1022.8-423.1
			z M1025.7-420.3c0.1,0,0.3-0.1,0.4-0.2c0.1-0.1,0.3-0.2,0.4-0.3v0.4h0.7v-3.7h-0.7v2.8c-0.1,0.1-0.1,0.1-0.2,0.2
			c-0.1,0.1-0.1,0.1-0.2,0.1c-0.1,0-0.1,0-0.1-0.1c0,0-0.1-0.1-0.1-0.2v-2.8h-0.7v3c0,0.2,0.1,0.4,0.1,0.5
			C1025.4-420.4,1025.5-420.3,1025.7-420.3z M1027.7-418.8h-8.6c-1.4,0-2.5,1.1-2.5,2.4v2c0,1.3,1.1,2.4,2.5,2.4h8.6
			c1.4,0,2.5-1.1,2.5-2.4v-2C1030.2-417.8,1029.1-418.8,1027.7-418.8z M1020.4-416.8h-0.7v3.1h-0.7v-3.1h-0.7v-0.5h2.2
			C1020.4-417.4,1020.4-416.8,1020.4-416.8z M1022.7-413.6h-0.8v-0.3c-0.2,0.1-0.3,0.2-0.5,0.3s-0.3,0.1-0.5,0.1s-0.3-0.1-0.4-0.1
			c-0.1-0.1-0.1-0.2-0.1-0.4v-2.5h0.8v2.3c0,0.1,0,0.1,0.1,0.2c0.1,0.1,0.1,0.1,0.2,0.1c0.1,0,0.1,0,0.2-0.1
			c0.1-0.1,0.2-0.1,0.2-0.2v-2.2h0.8C1022.7-416.6,1022.7-413.6,1022.7-413.6z M1025.7-414.2c0,0.2-0.1,0.3-0.2,0.5
			c-0.1,0.1-0.3,0.2-0.5,0.2s-0.3,0-0.4-0.1c-0.1,0-0.2-0.1-0.3-0.2v0.2h-0.8v-3.7h0.8v1.2c0.1-0.1,0.2-0.2,0.3-0.2
			c0.1-0.1,0.2-0.1,0.4-0.1s0.4,0.1,0.6,0.2c0.1,0.1,0.2,0.3,0.2,0.5C1025.7-415.7,1025.7-414.2,1025.7-414.2z M1028.7-415h-1.5v0.5
			c0,0.2,0,0.2,0.1,0.3c0.1,0.1,0.1,0.1,0.3,0.1c0.1,0,0.2,0,0.3-0.1c0.1-0.1,0.1-0.2,0.1-0.3v-0.1h0.8v0.1c0,0.3-0.1,0.5-0.3,0.7
			c-0.2,0.2-0.5,0.2-0.9,0.2c-0.3,0-0.6-0.1-0.8-0.2c-0.2-0.2-0.3-0.4-0.3-0.6v-1.3c0-0.2,0.1-0.5,0.3-0.6c0.2-0.2,0.5-0.2,0.8-0.2
			c0.3,0,0.6,0.1,0.8,0.2s0.3,0.3,0.3,0.6C1028.7-415.8,1028.7-415,1028.7-415z M1020-420.3h0.9v-2.2l1-3.1h-0.9l-0.6,2.1h-0.1
			l-0.6-2.1h-0.9l1.1,3.2L1020-420.3L1020-420.3z M1024.6-416h-0.2l-0.2,0.1v1.7c0.1,0.1,0.1,0.1,0.2,0.1h0.2c0.1,0,0.2,0,0.2-0.1
			c0.1,0,0.1-0.1,0.1-0.2v-1.4c0-0.1,0-0.2-0.1-0.2C1024.8-415.9,1024.7-416,1024.6-416z"/>
		<path id="XMLID_16_" class="st2" d="M1027.6-416.1c-0.1,0-0.2,0-0.3,0.1c-0.1,0.1-0.1,0.1-0.1,0.3v0.3h0.7v-0.3
			c0-0.1,0-0.2-0.1-0.3C1027.8-416.1,1027.7-416.1,1027.6-416.1z"/>
	</g>
	<path id="XMLID_5691_" class="st9" d="M1573.1,570.4c0.6,0,1-0.2,1.3-0.4c0.3-0.2,0.5-0.6,0.5-1.1v-2.7c0-0.4-0.2-0.7-0.5-1
		c-0.3-0.2-0.8-0.4-1.3-0.4c-0.6,0-1,0.1-1.3,0.4s-0.5,0.6-0.5,0.9v2.7c0,0.4,0.2,0.8,0.5,1.1
		C1572.1,570.2,1572.6,570.4,1573.1,570.4z M1572.5,566.3c0-0.1,0-0.2,0.2-0.2c0.1-0.1,0.2-0.1,0.4-0.1c0.2,0,0.3,0,0.4,0.1
		s0.2,0.2,0.2,0.2v2.6c0,0.1,0,0.2-0.2,0.3c-0.1,0.1-0.3,0.1-0.4,0.1c-0.2,0-0.3,0-0.4-0.1s-0.2-0.2-0.2-0.3V566.3L1572.5,566.3z
		 M1576.8,570.4c0.2,0,0.4-0.1,0.6-0.2s0.4-0.3,0.6-0.5v0.6h1.1v-5.4h-1.1v4.1c-0.1,0.1-0.2,0.2-0.3,0.3c-0.1,0.1-0.2,0.1-0.3,0.1
		c-0.1,0-0.2,0-0.2-0.1s-0.1-0.2-0.1-0.3v-4.2h-1.1v4.5c0,0.3,0.1,0.6,0.2,0.7C1576.4,570.3,1576.6,570.4,1576.8,570.4z
		 M1579.9,572.7h-12.7c-2,0-3.6,1.6-3.6,3.5v3c0,1.9,1.6,3.5,3.6,3.5h12.7c2,0,3.6-1.6,3.6-3.5v-3
		C1583.6,574.2,1581.9,572.7,1579.9,572.7z M1569.1,575.7h-1.1v4.7h-1.1v-4.7h-1.1v-0.8h3.3C1569.1,574.9,1569.1,575.7,1569.1,575.7
		z M1572.5,580.4h-1.2v-0.5c-0.2,0.2-0.4,0.3-0.7,0.4c-0.2,0.1-0.5,0.2-0.7,0.2c-0.3,0-0.5-0.1-0.6-0.2s-0.2-0.3-0.2-0.6V576h1.2
		v3.4c0,0.1,0,0.2,0.1,0.2s0.1,0.1,0.2,0.1s0.2,0,0.3-0.1c0.1-0.1,0.2-0.2,0.4-0.2v-3.3h1.2C1572.5,576,1572.5,580.4,1572.5,580.4z
		 M1576.9,579.5c0,0.3-0.1,0.5-0.3,0.7c-0.2,0.2-0.4,0.2-0.8,0.2c-0.2,0-0.4,0-0.6-0.1s-0.4-0.2-0.5-0.3v0.3h-1.2v-5.5h1.2v1.8
		c0.2-0.1,0.3-0.2,0.5-0.3c0.2-0.1,0.4-0.1,0.6-0.1c0.4,0,0.6,0.1,0.8,0.3c0.2,0.2,0.3,0.4,0.3,0.8V579.5z M1581.3,578.3h-2.2v0.8
		c0,0.2,0,0.4,0.1,0.5s0.2,0.1,0.4,0.1s0.3,0,0.4-0.1s0.1-0.2,0.1-0.5v-0.2h1.1v0.2c0,0.4-0.2,0.8-0.4,1c-0.3,0.2-0.7,0.3-1.3,0.3
		c-0.5,0-0.9-0.1-1.2-0.4c-0.3-0.2-0.4-0.6-0.4-0.9v-1.9c0-0.4,0.2-0.7,0.5-0.9c0.3-0.2,0.7-0.4,1.2-0.4s0.9,0.1,1.2,0.3
		s0.4,0.5,0.4,0.9C1581.3,577.2,1581.3,578.3,1581.3,578.3z M1568.5,570.4h1.3v-3.2l1.5-4.5h-1.3l-0.8,3.1h-0.1l-0.9-3.1h-1.3
		l1.6,4.7L1568.5,570.4L1568.5,570.4z M1575.2,576.9h-0.2l-0.2,0.1v2.5c0.1,0.1,0.2,0.1,0.3,0.2h0.3c0.2,0,0.2,0,0.3-0.1
		c0.1,0,0.1-0.2,0.1-0.3v-2.1c0-0.2,0-0.2-0.1-0.3C1575.5,577,1575.4,576.9,1575.2,576.9z"/>
	<path id="XMLID_947_" class="st10" d="M1573.1,460.3c0.6,0,1-0.2,1.3-0.4s0.5-0.6,0.5-1.1v-2.7c0-0.4-0.2-0.7-0.5-1
		c-0.3-0.2-0.8-0.4-1.3-0.4c-0.6,0-1,0.1-1.3,0.4c-0.3,0.2-0.5,0.6-0.5,0.9v2.7c0,0.4,0.2,0.8,0.5,1.1S1572.6,460.3,1573.1,460.3z
		 M1572.5,456.2c0-0.1,0-0.2,0.2-0.2c0.1-0.1,0.2-0.1,0.4-0.1c0.2,0,0.3,0,0.4,0.1s0.2,0.2,0.2,0.2v2.6c0,0.1,0,0.2-0.2,0.3
		c-0.1,0.1-0.3,0.1-0.4,0.1c-0.2,0-0.3,0-0.4-0.1s-0.2-0.2-0.2-0.3V456.2L1572.5,456.2z M1576.8,460.3c0.2,0,0.4-0.1,0.6-0.2
		c0.2-0.1,0.4-0.3,0.6-0.5v0.6h1.1v-5.4h-1.1v4.1c-0.1,0.1-0.2,0.2-0.3,0.3c-0.1,0.1-0.2,0.1-0.3,0.1c-0.1,0-0.2,0-0.2-0.1
		c0,0-0.1-0.2-0.1-0.3v-4.2h-1.1v4.5c0,0.3,0.1,0.6,0.2,0.7C1576.4,460.1,1576.6,460.3,1576.8,460.3z M1579.9,462.5h-12.7
		c-2,0-3.6,1.6-3.6,3.5v3c0,1.9,1.6,3.5,3.6,3.5h12.7c2,0,3.6-1.6,3.6-3.5v-3C1583.6,464.1,1581.9,462.5,1579.9,462.5z
		 M1569.1,465.5h-1.1v4.7h-1.1v-4.7h-1.1v-0.8h3.3C1569.1,464.7,1569.1,465.5,1569.1,465.5z M1572.5,470.2h-1.2v-0.5
		c-0.2,0.2-0.4,0.3-0.7,0.4s-0.5,0.2-0.7,0.2c-0.3,0-0.5-0.1-0.6-0.2c-0.1-0.1-0.2-0.3-0.2-0.6v-3.7h1.2v3.4c0,0.1,0,0.2,0.1,0.2
		c0,0,0.1,0.1,0.2,0.1s0.2,0,0.3-0.1c0.1-0.1,0.2-0.2,0.4-0.2v-3.3h1.2C1572.5,465.8,1572.5,470.2,1572.5,470.2z M1576.9,469.4
		c0,0.3-0.1,0.5-0.3,0.7c-0.2,0.2-0.4,0.2-0.8,0.2c-0.2,0-0.4,0-0.6-0.1c-0.2,0-0.4-0.2-0.5-0.3v0.3h-1.2v-5.5h1.2v1.8
		c0.2-0.1,0.3-0.2,0.5-0.3s0.4-0.1,0.6-0.1c0.4,0,0.6,0.1,0.8,0.3c0.2,0.2,0.3,0.4,0.3,0.8C1576.9,467.1,1576.9,469.4,1576.9,469.4z
		 M1581.3,468.1h-2.2v0.8c0,0.2,0,0.4,0.1,0.5s0.2,0.1,0.4,0.1s0.3,0,0.4-0.1s0.1-0.2,0.1-0.5v-0.2h1.1v0.2c0,0.4-0.2,0.8-0.4,1
		c-0.3,0.2-0.7,0.3-1.3,0.3c-0.5,0-0.9-0.1-1.2-0.4c-0.3-0.2-0.4-0.6-0.4-0.9V467c0-0.4,0.2-0.7,0.5-0.9s0.7-0.4,1.2-0.4
		s0.9,0.1,1.2,0.3s0.4,0.5,0.4,0.9C1581.3,467.1,1581.3,468.1,1581.3,468.1z M1568.5,460.3h1.3v-3.2l1.5-4.5h-1.3l-0.8,3.1h-0.1
		l-0.9-3.1h-1.3l1.6,4.7L1568.5,460.3L1568.5,460.3z M1575.2,466.8h-0.2l-0.2,0.1v2.5c0.1,0.1,0.2,0.1,0.3,0.2h0.3
		c0.2,0,0.2,0,0.3-0.1c0.1,0,0.1-0.2,0.1-0.3v-2.1c0-0.2,0-0.2-0.1-0.3C1575.5,466.8,1575.4,466.8,1575.2,466.8z"/>
	<path id="XMLID_5690_" class="st2" d="M1577.7,574.4c-0.1,0-0.2,0-0.3,0.1s-0.1,0.1-0.1,0.3v0.3h0.7v-0.3c0-0.1,0-0.2-0.1-0.3
		C1577.9,574.4,1577.9,574.4,1577.7,574.4z"/>
	<g id="XMLID_127_">
		<path id="XMLID_120_" class="st11" d="M584-320.1c6.6,0,12,5.4,12,12s-5.4,12-12,12s-12-5.4-12-12S577.4-320.1,584-320.1z"/>
		<path id="XMLID_119_" class="st2" d="M585.5-311.8h1.5v-2.3h-1.8l0,0c-2.2,0.1-2.7,1.3-2.7,2.6l0,0v1.1H581v2.2h1.5v6h2.3v-6h1.8
			l0.3-2.2h-2.2v-0.7C584.7-311.5,585-311.8,585.5-311.8z"/>
	</g>
	<path id="XMLID_418_" class="st9" d="M1246,566.3h2.6v-3.8h-3l0,0c-3.7,0.1-4.4,2.2-4.5,4.4l0,0v1.9h-2.5v3.7h2.5v10h3.8v-10h3.1
		l0.6-3.7h-3.7v-1.2C1244.8,566.9,1245.3,566.3,1246,566.3z"/>
	<g id="XMLID_135_">
		<path id="XMLID_118_" class="st11" d="M804-320.2c6.6,0,12,5.4,12,12s-5.4,12-12,12s-12-5.4-12-12S797.4-320.2,804-320.2z"/>
		<path id="XMLID_117_" class="st2" d="M808.1-315h-8.3c-1.4,0-2.6,1.2-2.6,2.6v8.3c0,1.4,1.2,2.6,2.6,2.6h8.3
			c1.4,0,2.6-1.2,2.6-2.6v-8.3C810.7-313.8,809.6-315,808.1-315z M809-313.5h0.3v2.2H807v-2.2H809z M804-310.5
			c1.9,0,2.3,1.8,2.3,2.3c0,1.3-1,2.3-2.3,2.3s-2.3-1-2.3-2.3C801.7-308.7,802.1-310.5,804-310.5z M809.3-304.2
			c0,0.7-0.6,1.3-1.3,1.3h-8c-0.7,0-1.3-0.6-1.3-1.3v-5.5h1.9c-0.2,0.4-0.3,1-0.3,1.5c0,2,1.7,3.7,3.7,3.7s3.7-1.7,3.7-3.7
			c0-0.5-0.1-1.1-0.3-1.5h1.8L809.3-304.2L809.3-304.2z"/>
	</g>
	<path id="XMLID_122_" class="st9" d="M1469.6,562.5h-12.3c-2.1,0-3.9,1.7-3.9,3.9v12.3c0,2.1,1.7,3.9,3.9,3.9h12.3
		c2.1,0,3.9-1.7,3.9-3.9v-12.3C1473.5,564.2,1471.7,562.5,1469.6,562.5z M1470.8,564.7h0.4v3.3h-3.4v-3.3H1470.8z M1463.5,569.1
		c2.8,0,3.4,2.6,3.4,3.4c0,1.9-1.5,3.4-3.4,3.4s-3.4-1.5-3.4-3.4C1460.2,571.7,1460.7,569.1,1463.5,569.1z M1471.3,578.4
		c0,1.1-0.9,1.9-1.9,1.9h-11.8c-1.1,0-1.9-0.9-1.9-1.9v-8.1h2.8c-0.3,0.6-0.4,1.5-0.4,2.2c0,3,2.4,5.4,5.4,5.4s5.4-2.4,5.4-5.4
		c0-0.7-0.2-1.6-0.4-2.2h2.7L1471.3,578.4L1471.3,578.4z"/>
	<g id="XMLID_132_">
		<path id="XMLID_116_" class="st11" d="M694-320.2c6.6,0,12,5.4,12,12s-5.4,12-12,12s-12-5.4-12-12S687.4-320.2,694-320.2z"/>
		<path id="XMLID_121_" class="st2" d="M688.8-303.7h2.2v-7.5h-2.2V-303.7z M697.5-311.5c-1.1,0-2.1,0.4-2.7,1.3v-1h-2.3v7.5h2.3
			v-4.1c0-0.9,0.8-1.7,1.8-1.7s1.2,0.8,1.2,1.7v4.1h2.2v-4.2C700-310.9,698.6-311.5,697.5-311.5z M689.9-311.9
			c0.6,0,1.1-0.5,1.1-1.1s-0.5-1.1-1.1-1.1c-0.6,0-1.1,0.5-1.1,1.1S689.3-311.9,689.9-311.9z"/>
	</g>
	<g id="XMLID_1272_">
		<path id="XMLID_1276_" class="st2" d="M915.5-311.8h1.5v-2.3h-1.8l0,0c-2.2,0.1-2.7,1.3-2.7,2.6l0,0v1.1H911v2.2h1.5v6h2.3v-6h1.8
			l0.3-2.2h-2.2v-0.7C914.8-311.5,915.1-311.8,915.5-311.8z"/>
	</g>
	<path id="XMLID_2468_" class="st9" d="M1343.5,581.5h3.8v-12.9h-3.8V581.5z M1358.5,568.1c-1.9,0-3.5,0.7-4.7,2.2v-1.8h-3.9v12.9
		h3.9v-7c0-1.5,1.4-2.9,3-2.9c1.6,0,2.1,1.4,2.1,2.9v7h3.8v-7.3C1362.8,569.1,1360.4,568.1,1358.5,568.1z M1345.4,567.3
		c1.1,0,1.9-0.9,1.9-1.9c0-1.1-0.9-1.9-1.9-1.9c-1.1,0-1.9,0.9-1.9,1.9C1343.4,566.5,1344.3,567.3,1345.4,567.3z"/>
	<path id="XMLID_2237_" class="st11" d="M586.2-204h2.6v-3.8h-3l0,0c-3.7,0.1-4.4,2.2-4.5,4.4l0,0v1.9h-2.5v3.7h2.5v10h3.8v-10h3.1
		l0.6-3.7H585v-1.2C585-203.4,585.5-204,586.2-204z"/>
	<path id="XMLID_1097_" class="st11" d="M809.8-207.8h-12.3c-2.1,0-3.9,1.7-3.9,3.9v12.3c0,2.1,1.7,3.9,3.9,3.9h12.3
		c2.1,0,3.9-1.7,3.9-3.9v-12.3C813.7-206.1,812-207.8,809.8-207.8z M811.1-205.6h0.4v3.3h-3.4v-3.3H811.1z M803.7-201.2
		c2.8,0,3.4,2.6,3.4,3.4c0,1.9-1.5,3.4-3.4,3.4s-3.4-1.5-3.4-3.4C800.4-198.5,801-201.2,803.7-201.2z M811.5-191.9
		c0,1.1-0.9,1.9-1.9,1.9h-11.8c-1.1,0-1.9-0.9-1.9-1.9v-8.1h2.8c-0.3,0.6-0.4,1.5-0.4,2.2c0,3,2.4,5.4,5.4,5.4s5.4-2.4,5.4-5.4
		c0-0.7-0.2-1.6-0.4-2.2h2.7L811.5-191.9L811.5-191.9z"/>
	<path id="XMLID_1091_" class="st11" d="M683.7-188.8h3.8v-12.9h-3.8V-188.8z M698.7-202.1c-1.9,0-3.5,0.7-4.7,2.2v-1.8h-3.9v12.9
		h3.9v-7c0-1.5,1.4-2.9,3-2.9s2.1,1.4,2.1,2.9v7h3.8v-7.3C703-201.2,700.6-202.1,698.7-202.1z M685.6-203c1.1,0,1.9-0.9,1.9-1.9
		s-0.9-1.9-1.9-1.9s-1.9,0.9-1.9,1.9S684.5-203,685.6-203z"/>
	<path id="XMLID_1152_" class="st10" d="M1246,456.2h2.6v-3.8h-3l0,0c-3.7,0.1-4.4,2.2-4.5,4.4l0,0v1.9h-2.5v3.7h2.5v10h3.8v-10h3.1
		l0.6-3.7h-3.7v-1.2C1244.8,456.8,1245.3,456.2,1246,456.2z"/>
	<path id="XMLID_1147_" class="st10" d="M1469.6,452.5h-12.3c-2.1,0-3.9,1.7-3.9,3.9v12.3c0,2.1,1.7,3.9,3.9,3.9h12.3
		c2.1,0,3.9-1.7,3.9-3.9v-12.3C1473.5,454.2,1471.7,452.5,1469.6,452.5z M1470.8,454.7h0.4v3.3h-3.4v-3.3H1470.8z M1463.5,459.1
		c2.8,0,3.4,2.6,3.4,3.4c0,1.9-1.5,3.4-3.4,3.4s-3.4-1.5-3.4-3.4C1460.2,461.8,1460.7,459.1,1463.5,459.1z M1471.3,468.4
		c0,1.1-0.9,1.9-1.9,1.9h-11.8c-1.1,0-1.9-0.9-1.9-1.9v-8.1h2.8c-0.3,0.6-0.4,1.5-0.4,2.2c0,3,2.4,5.4,5.4,5.4s5.4-2.4,5.4-5.4
		c0-0.7-0.2-1.6-0.4-2.2h2.7L1471.3,468.4L1471.3,468.4z"/>
	<path id="XMLID_1143_" class="st10" d="M1343.5,471.5h3.8v-12.9h-3.8V471.5z M1358.5,458.2c-1.9,0-3.5,0.7-4.7,2.2v-1.8h-3.9v12.9
		h3.9v-7c0-1.5,1.4-2.9,3-2.9c1.6,0,2.1,1.4,2.1,2.9v7h3.8v-7.3C1362.8,459.1,1360.4,458.2,1358.5,458.2z M1345.4,457.3
		c1.1,0,1.9-0.9,1.9-1.9c0-1.1-0.9-1.9-1.9-1.9c-1.1,0-1.9,0.9-1.9,1.9C1343.4,456.5,1344.3,457.3,1345.4,457.3z"/>
	<path id="XMLID_1133_" class="st12" d="M696.4,345.2h2.6v-3.8h-3l0,0c-3.7,0.1-4.4,2.2-4.5,4.4l0,0v1.9H689v3.7h2.5v10h3.8v-10h3.1
		l0.6-3.7h-3.7v-1.2C695.2,345.8,695.7,345.2,696.4,345.2z"/>
	<path id="XMLID_1096_" class="st12" d="M793.9,360.4h3.8v-12.9h-3.8V360.4z M808.9,347.1c-1.9,0-3.5,0.7-4.7,2.2v-1.8h-3.9v12.9
		h3.9v-7c0-1.5,1.4-2.9,3-2.9c1.6,0,2.1,1.4,2.1,2.9v7h3.8v-7.3C813.2,348,810.8,347.1,808.9,347.1z M795.8,346.2
		c1.1,0,1.9-0.9,1.9-1.9c0-1.1-0.9-1.9-1.9-1.9s-1.9,0.9-1.9,1.9C793.8,345.4,794.7,346.2,795.8,346.2z"/>
	<circle id="XMLID_2158_" class="st13" cx="1024.7" cy="462.4" r="40"/>
	<g id="XMLID_1317_">
		<g id="share-alt">
			<path id="XMLID_1318_" class="st9" d="M1127.9,575.3c0.8,0,1.5-0.3,2-0.8l7.1,4.1c-0.1,0.2-0.1,0.5-0.1,0.7c0,1.7,1.3,3,3,3
				s3-1.3,3-3s-1.3-3-3-3c-0.8,0-1.5,0.3-2,0.8l-7.1-4.1c0.1-0.2,0.1-0.5,0.1-0.7s0-0.5-0.1-0.7l7.1-4.2c0.5,0.5,1.2,0.8,2,0.8
				c1.6,0,2.9-1.3,2.9-2.9s-1.3-2.9-2.9-2.9s-2.9,1.3-2.9,2.9c0,0.2,0,0.4,0.1,0.7l-7.1,4.2c-0.5-0.5-1.2-0.8-2-0.8
				c-1.7,0-3,1.3-3,3S1126.2,575.3,1127.9,575.3z"/>
		</g>
	</g>
	<g id="XMLID_6578_">
		<g id="share-alt_1_">
			<path id="XMLID_6579_" class="st14" d="M908.6,575.3c0.8,0,1.5-0.3,2-0.8l7.1,4.1c-0.1,0.2-0.1,0.5-0.1,0.7c0,1.7,1.3,3,3,3
				c1.7,0,3-1.3,3-3s-1.3-3-3-3c-0.8,0-1.5,0.3-2,0.8l-7.1-4.1c0.1-0.2,0.1-0.5,0.1-0.7s0-0.5-0.1-0.7l7.1-4.2
				c0.5,0.5,1.2,0.8,2,0.8c1.6,0,2.9-1.3,2.9-2.9s-1.3-2.9-2.9-2.9c-1.6,0-2.9,1.3-2.9,2.9c0,0.2,0,0.4,0.1,0.7l-7.1,4.2
				c-0.5-0.5-1.2-0.8-2-0.8c-1.7,0-3,1.3-3,3S906.9,575.3,908.6,575.3z"/>
		</g>
	</g>
	<g id="XMLID_1365_">
		<path id="XMLID_1386_" class="st14" d="M585.3,563.3L585.3,563.3c-0.4,0-0.6,0.1-0.8,0.3c-0.2,0.2-0.4,0.5-0.4,0.8v4
			c0,0.5,0.4,1,0.8,1.1c1.6,0.4,2.7,1.8,2.7,3.5c0,2-1.6,3.6-3.6,3.6c-1.7,0-3.1-1.1-3.5-2.7c-0.1-0.5-0.6-0.8-1.1-0.8h-4.1
			c-0.6,0-1.1,0.5-1.1,1.1v15.7c0,0.6,0.5,1.1,1.1,1.1h4c0.6,0,1.1-0.5,1.1-1.1v-7.7c1.2,0.5,2.4,0.7,3.6,0.7c5.4,0,9.8-4.4,9.8-9.8
			C593.8,568.1,590.1,563.9,585.3,563.3"/>
		<g id="XMLID_1383_" class="st15">
			<g id="XMLID_1384_">
				<g id="XMLID_1562_">
					<g>
						<defs>
							<rect id="SVGID_1_" x="564.5" y="576.6" width="6.2" height="6.2"/>
						</defs>
						<clipPath id="SVGID_2_">
							<use xlink:href="#SVGID_1_"  style="overflow:visible;"/>
						</clipPath>
						<path id="XMLID_1385_" class="st16" d="M567.5,576.6c-1.8,0.1-3,1.4-3.1,3.1c0.2,1.9,1.2,2.9,3.1,3.1c1.7-0.1,3-1.3,3.1-3.1
							C570.6,577.9,569.3,576.7,567.5,576.6"/>
					</g>
				</g>
			</g>
		</g>
		<path id="XMLID_1382_" class="st14" d="M553.2,563.2c-1.2,0-2.4,0.2-3.6,0.7v-7.7c0-0.6-0.5-1.1-1.1-1.1h-4
			c-0.6,0-1.1,0.5-1.1,1.1v15.7c0,0.6,0.5,1.1,1.1,1.1h4.1c0.5,0,1-0.4,1.1-0.8c0.4-1.6,1.8-2.7,3.5-2.7c2,0,3.6,1.6,3.6,3.6
			c0,1.7-1.1,3.1-2.7,3.5c-0.5,0.1-0.8,0.6-0.8,1.1v4c0,0.3,0.1,0.6,0.4,0.8c0.2,0.2,0.5,0.3,0.7,0.3h0.1c4.9-0.6,8.5-4.8,8.5-9.7
			C563,567.6,558.6,563.2,553.2,563.2"/>
		<g id="XMLID_1379_" class="st15">
			<g id="XMLID_1380_">
				<g id="XMLID_1556_">
					<g>
						<defs>
							<rect id="SVGID_3_" x="627.3" y="576.6" width="6.2" height="6.2"/>
						</defs>
						<clipPath id="SVGID_4_">
							<use xlink:href="#SVGID_3_"  style="overflow:visible;"/>
						</clipPath>
						<path id="XMLID_1381_" class="st17" d="M630.3,576.6c-1.8,0.1-3,1.4-3.1,3.1c0.2,1.9,1.2,2.9,3.1,3.1c1.7-0.1,3-1.3,3.1-3.1
							C633.3,577.9,632.1,576.7,630.3,576.6"/>
					</g>
				</g>
			</g>
		</g>
		<g id="XMLID_1376_" class="st15">
			<g id="XMLID_1377_">
				<g id="XMLID_1551_">
					<g>
						<defs>
							<rect id="SVGID_5_" x="595.9" y="576.6" width="6.2" height="6.2"/>
						</defs>
						<clipPath id="SVGID_6_">
							<use xlink:href="#SVGID_5_"  style="overflow:visible;"/>
						</clipPath>
						<path id="XMLID_1378_" class="st18" d="M599,576.6c-1.8,0.1-3,1.4-3.1,3.1c0.2,1.9,1.2,2.9,3.1,3.1c1.7-0.1,3-1.3,3.1-3.1
							C602,577.9,600.7,576.7,599,576.6"/>
					</g>
				</g>
			</g>
		</g>
		<path id="XMLID_1375_" class="st14" d="M622.5,573h-4c-0.5,0-1,0.4-1.1,0.8c-0.4,1.6-1.8,2.7-3.5,2.7c-2,0-3.6-1.6-3.6-3.6
			c0-1.7,1.1-3.1,2.7-3.5c0.5-0.1,0.8-0.6,0.8-1.1v-4c0-0.3-0.1-0.6-0.4-0.8c-0.2-0.2-0.5-0.3-0.7-0.3h-0.1
			c-4.9,0.6-8.5,4.8-8.5,9.7c0,5.4,4.4,9.8,9.8,9.8c1.2,0,2.8-0.3,3.6-0.7c0.2,0.4,0.6,0.7,1,0.7h4c0.6,0,1.1-0.5,1.1-1.1v-7.5
			C623.6,573.5,623.1,573,622.5,573"/>
		<g id="XMLID_1372_" class="st15">
			<g id="XMLID_1373_">
				<g id="XMLID_1545_">
					<g>
						<defs>
							<rect id="SVGID_7_" x="543.7" y="573.6" width="9" height="9"/>
						</defs>
						<clipPath id="SVGID_8_">
							<use xlink:href="#SVGID_7_"  style="overflow:visible;"/>
						</clipPath>
						<path id="XMLID_1374_" class="st19" d="M551.5,582.6c-0.1,0-0.2,0-0.2,0c-3.8-0.8-6.8-3.8-7.6-7.6c-0.1-0.3,0-0.7,0.2-0.9
							c0.2-0.3,0.5-0.4,0.9-0.4h4.1c0.5,0,0.9,0.3,1,0.7c0.4,0.9,1.1,1.6,2,2c0.4,0.2,0.7,0.6,0.7,1v4.1c0,0.3-0.2,0.7-0.4,0.9
							C552,582.5,551.8,582.6,551.5,582.6"/>
					</g>
				</g>
			</g>
		</g>
		<g id="XMLID_1369_" class="st15">
			<g id="XMLID_1370_">
				<g id="XMLID_1540_">
					<g>
						<defs>
							<rect id="SVGID_9_" x="574.4" y="563.4" width="9" height="9"/>
						</defs>
						<clipPath id="SVGID_10_">
							<use xlink:href="#SVGID_9_"  style="overflow:visible;"/>
						</clipPath>
						<path id="XMLID_1371_" class="st20" d="M574.4,571.3c0-0.1,0-0.1,0-0.2c0.8-3.8,3.8-6.8,7.6-7.6c0.3-0.1,0.7,0,0.9,0.2
							c0.3,0.2,0.4,0.5,0.4,0.9v4.1c0,0.5-0.3,0.9-0.7,1c-0.9,0.4-1.6,1.1-2,2c-0.2,0.4-0.6,0.7-1,0.7h-4.1c-0.3,0-0.7-0.2-0.9-0.4
							C574.5,571.8,574.4,571.5,574.4,571.3"/>
					</g>
				</g>
			</g>
		</g>
		<g id="XMLID_1366_" class="st15">
			<g id="XMLID_1367_">
				<g id="XMLID_1535_">
					<g>
						<defs>
							<rect id="SVGID_11_" x="614.5" y="563.4" width="9" height="9"/>
						</defs>
						<clipPath id="SVGID_12_">
							<use xlink:href="#SVGID_11_"  style="overflow:visible;"/>
						</clipPath>
						<path id="XMLID_1368_" class="st21" d="M615.6,563.4c0.1,0,0.1,0,0.2,0c3.8,0.8,6.8,3.8,7.6,7.6c0.1,0.3,0,0.7-0.2,0.9
							c-0.2,0.3-0.5,0.4-0.9,0.4h-4.1c-0.5,0-0.9-0.3-1-0.7c-0.4-0.9-1.1-1.6-2-2c-0.4-0.2-0.7-0.6-0.7-1v-4.1
							c0-0.3,0.2-0.7,0.4-0.9C615.1,563.5,615.4,563.4,615.6,563.4"/>
					</g>
				</g>
			</g>
		</g>
	</g>
	<g id="XMLID_126_">
		<path id="XMLID_1260_" class="st22" d="M1025.3,563.3c-0.1,0-0.1,0-0.2,0c-0.3,0-0.6,0.1-0.7,0.3c-0.3,0.2-0.4,0.6-0.4,0.8v4
			c0,0.6,0.4,0.9,0.8,1.1c1.6,0.4,2.8,1.9,2.8,3.5c0,1.9-1.6,3.6-3.6,3.6c-1.7,0-3.1-1.1-3.5-2.8c-0.1-0.5-0.6-0.8-1.1-0.8h-4.1
			c-0.6,0-1.1,0.5-1.1,1.1v15.6c0,0.6,0.5,1.1,1.1,1.1h4c0.6,0,1.1-0.5,1.1-1.1V582c1.1,0.5,2.3,0.6,3.6,0.6c5.4,0,9.7-4.4,9.7-9.7
			C1033.8,568.1,1030.2,563.9,1025.3,563.3"/>
		<g id="XMLID_1255_">
			<g id="XMLID_1256_">
				<g id="XMLID_1257_">
					<g>
						<defs>
							<rect id="SVGID_13_" x="1004.6" y="576.6" width="6.2" height="6.2"/>
						</defs>
						<clipPath id="SVGID_14_">
							<use xlink:href="#SVGID_13_"  style="overflow:visible;"/>
						</clipPath>
						<path id="XMLID_1258_" class="st23" d="M1007.6,576.6c-1.9,0.1-3.1,1.4-3.1,3.1c0.2,1.9,1.2,3,3.1,3.1
							c1.8-0.1,3.1-1.3,3.1-3.1C1010.7,577.9,1009.4,576.6,1007.6,576.6"/>
					</g>
				</g>
			</g>
		</g>
		<path id="XMLID_1254_" class="st22" d="M993.4,563.2c-1.2,0-2.4,0.2-3.6,0.6v-7.7c0-0.6-0.5-1.1-1.1-1.1h-4
			c-0.6,0-1.1,0.5-1.1,1.1v15.7c0,0.6,0.5,1.1,1.1,1.1h4.1c0.6,0,0.9-0.4,1.1-0.8c0.4-1.6,1.9-2.8,3.5-2.8c1.9,0,3.6,1.6,3.6,3.6
			c0,1.7-1.1,3.1-2.8,3.5c-0.5,0.1-0.8,0.6-0.8,1.1v4c0,0.3,0.1,0.6,0.4,0.8c0.2,0.2,0.5,0.3,0.7,0.3c0.1,0,0.1,0,0.2,0
			c4.8-0.6,8.5-4.8,8.5-9.7C1003.1,567.6,998.8,563.2,993.4,563.2"/>
		<g id="XMLID_1249_">
			<g id="XMLID_1250_">
				<g id="XMLID_1251_">
					<g>
						<defs>
							<rect id="SVGID_15_" x="1067.4" y="576.6" width="6.2" height="6.2"/>
						</defs>
						<clipPath id="SVGID_16_">
							<use xlink:href="#SVGID_15_"  style="overflow:visible;"/>
						</clipPath>
						<path id="XMLID_1252_" class="st24" d="M1070.5,576.6c-1.9,0.1-3.1,1.4-3.1,3.1c0.2,1.9,1.2,3,3.1,3.1
							c1.8-0.1,3.1-1.3,3.1-3.1C1073.5,577.9,1072.3,576.6,1070.5,576.6"/>
					</g>
				</g>
			</g>
		</g>
		<g id="XMLID_1245_">
			<g id="XMLID_1246_">
				<g>
					<defs>
						<rect id="SVGID_17_" x="1036" y="576.6" width="6.2" height="6.2"/>
					</defs>
					<clipPath id="SVGID_18_">
						<use xlink:href="#SVGID_17_"  style="overflow:visible;"/>
					</clipPath>
					<path id="XMLID_1247_" class="st25" d="M1039,576.6c-1.9,0.1-3.1,1.4-3.1,3.1c0.2,1.9,1.2,3,3.1,3.1c1.8-0.1,3.1-1.3,3.1-3.1
						S1040.8,576.6,1039,576.6"/>
				</g>
			</g>
		</g>
		<path id="XMLID_1244_" class="st22" d="M1062.6,573h-4.1c-0.6,0-0.9,0.4-1.1,0.8c-0.4,1.6-1.9,2.8-3.5,2.8c-1.9,0-3.6-1.6-3.6-3.6
			c0-1.7,1.1-3.1,2.8-3.5c0.5-0.1,0.8-0.6,0.8-1.1v-4c0-0.3-0.1-0.6-0.4-0.8c-0.2-0.2-0.5-0.3-0.7-0.3c-0.1,0-0.1,0-0.2,0
			c-4.7,0.6-8.4,4.8-8.4,9.7c0,5.4,4.4,9.7,9.7,9.7c1.2,0,2.8-0.4,3.6-0.7c0.2,0.5,0.6,0.7,1,0.7h4c0.6,0,1.1-0.5,1.1-1.1V574
			C1063.8,573.5,1063.2,573,1062.6,573"/>
		<g id="XMLID_1239_">
			<g id="XMLID_1240_">
				<g id="XMLID_1241_">
					<g>
						<defs>
							<rect id="SVGID_19_" x="983.8" y="573.7" width="9" height="9"/>
						</defs>
						<clipPath id="SVGID_20_">
							<use xlink:href="#SVGID_19_"  style="overflow:visible;"/>
						</clipPath>
						<path id="XMLID_1242_" class="st26" d="M991.6,582.5c-0.1,0-0.2,0-0.2,0c-3.8-0.7-6.9-3.8-7.6-7.6c-0.1-0.4,0-0.6,0.2-0.9
							c0.2-0.3,0.6-0.4,0.8-0.4h4.1c0.5,0,0.8,0.3,1,0.7c0.4,0.9,1.1,1.7,2,2c0.5,0.2,0.7,0.6,0.7,1v4.1c0,0.4-0.2,0.6-0.4,0.8
							C992.1,582.5,991.9,582.5,991.6,582.5"/>
					</g>
				</g>
			</g>
		</g>
		<g id="XMLID_1124_">
			<g id="XMLID_1125_">
				<g id="XMLID_1236_">
					<g>
						<defs>
							<rect id="SVGID_21_" x="1014.5" y="563.4" width="9" height="9"/>
						</defs>
						<clipPath id="SVGID_22_">
							<use xlink:href="#SVGID_21_"  style="overflow:visible;"/>
						</clipPath>
						<path id="XMLID_1237_" class="st27" d="M1014.5,571.2c0-0.1,0-0.2,0-0.2c0.7-3.8,3.8-6.9,7.6-7.6c0.4-0.1,0.6,0,0.9,0.2
							s0.4,0.6,0.4,0.8v4.1c0,0.5-0.3,0.8-0.7,1c-0.9,0.4-1.7,1.1-2,2c-0.2,0.5-0.6,0.7-1,0.7h-4.1c-0.4,0-0.6-0.2-0.8-0.4
							C1014.6,571.7,1014.5,571.5,1014.5,571.2"/>
					</g>
				</g>
			</g>
		</g>
		<g id="XMLID_1098_">
			<g id="XMLID_1107_">
				<g>
					<defs>
						<rect id="SVGID_23_" x="1054.6" y="563.4" width="9" height="9"/>
					</defs>
					<clipPath id="SVGID_24_">
						<use xlink:href="#SVGID_23_"  style="overflow:visible;"/>
					</clipPath>
					<path id="XMLID_1116_" class="st28" d="M1055.7,563.4c0.1,0,0.2,0,0.2,0c3.8,0.7,6.9,3.8,7.6,7.6c0.1,0.4,0,0.6-0.2,0.9
						c-0.2,0.3-0.6,0.4-0.8,0.4h-4.1c-0.5,0-0.8-0.3-1-0.7c-0.4-0.9-1.1-1.7-2-2c-0.5-0.2-0.7-0.6-0.7-1v-4c0-0.4,0.2-0.6,0.4-0.8
						C1055.2,563.5,1055.5,563.4,1055.7,563.4"/>
				</g>
			</g>
		</g>
	</g>
	<path id="XMLID_115_" class="st14" d="M707-93.5c0,8.3-13,25-13,25s-13-16.7-13-25s4.7-15,13-15S707-101.8,707-93.5z"/>
	<circle id="XMLID_304_" class="st2" cx="694" cy="-95.7" r="7.5"/>
	<circle id="XMLID_133_" class="st0" cx="803.9" cy="-88.1" r="15"/>
	<circle id="XMLID_2801_" class="st14" cx="914" cy="-88.1" r="12.5"/>
	<circle id="XMLID_2804_" class="st29" cx="1024" cy="-88.1" r="12.5"/>
	<circle id="XMLID_5217_" class="st14" cx="914" cy="-308.1" r="12.5"/>
	<circle id="XMLID_5105_" class="st29" cx="1024" cy="-308.1" r="12.5"/>
	<circle id="XMLID_6522_" class="st30" cx="1576" cy="23.7" r="12.5"/>
	<g id="XMLID_3705_">
		<g id="XMLID_3706_">
			<path id="XMLID_3708_" class="st12" d="M1362-195.2c-0.6-0.6-1.3-1.3-1.9-1.9c-0.3-0.3-0.7-0.5-1.1-0.5c-0.4,0-0.8,0.2-1.1,0.5
				l-0.1,0.1c-0.3,0.3-0.7,0.7-1,1c-0.1,0-0.1-0.1-0.2-0.1c-0.2-0.1-0.3-0.1-0.4-0.2c-1-0.6-1.9-1.5-2.8-2.6c-0.4-0.5-0.7-1-0.9-1.5
				c0.3-0.3,0.6-0.6,0.9-0.9l0.2-0.2c0.7-0.7,0.7-1.6,0-2.3c-0.2-0.2-0.4-0.4-0.6-0.6l-0.6-0.6c-0.2-0.2-0.4-0.4-0.7-0.6
				c-0.3-0.3-0.7-0.5-1.1-0.5c-0.4,0-0.8,0.2-1.1,0.5c-0.2,0.2-0.3,0.3-0.5,0.5s-0.5,0.5-0.7,0.7c-0.4,0.4-0.7,0.9-0.7,1.5
				c-0.1,1,0.2,1.8,0.4,2.5c0.6,1.5,1.4,2.9,2.6,4.3c1.5,1.8,3.2,3.1,5.3,4.1c1.1,0.5,2.1,0.8,3,0.9c0.1,0,0.1,0,0.2,0
				c0.8,0,1.4-0.3,1.9-0.8c0.2-0.2,0.4-0.5,0.7-0.7c0.1-0.1,0.2-0.2,0.4-0.4C1362.7-193.6,1362.7-194.5,1362-195.2L1362-195.2z"/>
		</g>
	</g>
	<path id="XMLID_2232_" class="st14" d="M1026,345.2h2.6v-3.8h-3l0,0c-3.7,0.1-4.4,2.2-4.5,4.4l0,0v1.9h-2.5v3.7h2.5v10h3.8v-10h3.1
		l0.6-3.7h-3.7v-1.2C1024.8,345.8,1025.3,345.2,1026,345.2z"/>
	<path id="XMLID_2225_" class="st14" d="M1123.4,360.4h3.8v-12.9h-3.8V360.4z M1138.4,347.1c-1.9,0-3.5,0.7-4.7,2.2v-1.8h-3.9v12.9
		h3.9v-7c0-1.5,1.4-2.9,3-2.9c1.6,0,2.1,1.4,2.1,2.9v7h3.8v-7.3C1142.7,348,1140.3,347.1,1138.4,347.1z M1125.3,346.2
		c1.1,0,1.9-0.9,1.9-1.9c0-1.1-0.9-1.9-1.9-1.9c-1.1,0-1.9,0.9-1.9,1.9C1123.4,345.4,1124.2,346.2,1125.3,346.2z"/>
	<path id="XMLID_672_" class="st14" d="M1022.1,244h3.7c1.4,0,2.5,1.1,2.5,2.5s-1.1,2.5-2.5,2.5h-6.7c-0.9,0-1.6,0.7-1.6,1.6
		c0,0.9,0.7,1.6,1.6,1.6h3.3v2.4c0,0.9,0.7,1.6,1.6,1.6s1.6-0.7,1.6-1.6v-2.4h0.3c3.2,0,5.7-2.6,5.7-5.7c0-3.2-2.6-5.7-5.7-5.7h-3.7
		c-1.4,0-2.5-1.1-2.5-2.5s1.1-2.5,2.5-2.5h6.6c0.9,0,1.6-0.7,1.6-1.6c0-0.9-0.7-1.6-1.6-1.6h-3.1v-2.3c0-0.9-0.7-1.6-1.6-1.6
		c-0.9,0-1.6,0.7-1.6,1.6v2.3h-0.3c-3.2,0-5.7,2.6-5.7,5.7C1016.4,241.5,1019,244,1022.1,244L1022.1,244z"/>
	<line id="XMLID_137_" class="st31" x1="1094" y1="51.9" x2="1174" y2="51.9"/>
	<line id="XMLID_655_" class="st31" x1="1094" y1="46.9" x2="1094" y2="51.9"/>
	<line id="XMLID_657_" class="st31" x1="1174" y1="46.9" x2="1174" y2="51.9"/>
	<line id="XMLID_141_" class="st32" x1="1124" y1="-8.1" x2="1144" y2="-8.1"/>
	<line id="XMLID_638_" class="st32" x1="1134.2" y1="1.9" x2="1134" y2="-8.1"/>
	<path id="XMLID_140_" class="st32" d="M1134,1.9c-22.1,0-40,17.9-40,40h80c0-18.6-12.7-34.3-30-38.7"/>
	<path id="XMLID_667_" class="st32" d="M614.1,11.9v-5c0-2.8-2.2-5-5-5h-60c-2.8,0-5,2.2-5,5v40c0,2.8,2.2,5,5,5h40"/>
	<path id="XMLID_658_" class="st31" d="M604.1,63.6h15c2.8,0,5-2.2,5-5V26.9c0-2.8-2.2-5-5-5h-15c-2.8,0-5,2.2-5,5v31.6
		C599.1,61.3,601.3,63.6,604.1,63.6z"/>
	<line id="XMLID_669_" class="st32" x1="579.1" y1="58.1" x2="579.1" y2="61.7"/>
	<line id="XMLID_674_" class="st32" x1="569.1" y1="63.6" x2="589.1" y2="63.6"/>
	<path id="XMLID_687_" class="st33" d="M611.6,58.7L611.6,58.7c-1.1,0-2-0.9-2-2l0,0c0-1.1,0.9-2,2-2l0,0c1.1,0,2,0.9,2,2l0,0
		C613.6,57.8,612.7,58.7,611.6,58.7z"/>
	<path id="XMLID_654_" class="st32" d="M689,61.9h-24.5c-5.5,0-10-4.5-10-10v-50H704v5.5"/>
	<path id="XMLID_1109_" class="st32" d="M669,11.9v-10c0-5.5,4.5-10,10-10l0,0c5.5,0,10,4.5,10,10v10"/>
	<path id="XMLID_1270_" class="st31" d="M724,61.9h-20c-5.5,0-10-4.5-10-10v-30h40v30C734,57.4,729.5,61.9,724,61.9z"/>
	<path id="XMLID_652_" class="st31" d="M704,26.4v-4.5c0-5.5,4.5-10,10-10l0,0c5.5,0,10,4.5,10,10v4.5"/>
	<path id="XMLID_1090_" class="st31" d="M1364.5,61.9h28c0.6,0,1-0.4,1-1v-58c0-0.6-0.4-1-1-1h-28c-0.6,0-1,0.4-1,1v58
		C1363.5,61.5,1363.9,61.9,1364.5,61.9z"/>
	<line id="XMLID_1104_" class="st32" x1="1323.5" y1="-10.2" x2="1323.5" y2="-6.2"/>
	<line id="XMLID_1119_" class="st32" x1="1333.5" y1="-10.2" x2="1333.5" y2="-6.2"/>
	<line id="XMLID_1159_" class="st32" x1="1343.5" y1="-10.2" x2="1343.5" y2="-6.2"/>
	<line id="XMLID_1157_" class="st32" x1="1353.5" y1="-10.2" x2="1353.5" y2="-6.2"/>
	<line id="XMLID_1582_" class="st32" x1="1323.5" y1="-0.2" x2="1323.5" y2="3.8"/>
	<line id="XMLID_1580_" class="st32" x1="1333.5" y1="-0.2" x2="1333.5" y2="3.8"/>
	<line id="XMLID_1417_" class="st32" x1="1343.5" y1="-0.2" x2="1343.5" y2="3.8"/>
	<line id="XMLID_1267_" class="st32" x1="1353.5" y1="-0.2" x2="1353.5" y2="3.8"/>
	<line id="XMLID_1800_" class="st32" x1="1323.5" y1="9.6" x2="1323.5" y2="13.6"/>
	<line id="XMLID_1799_" class="st32" x1="1333.5" y1="9.6" x2="1333.5" y2="13.6"/>
	<line id="XMLID_1680_" class="st32" x1="1343.5" y1="9.6" x2="1343.5" y2="13.6"/>
	<line id="XMLID_1586_" class="st32" x1="1353.5" y1="9.6" x2="1353.5" y2="13.6"/>
	<line id="XMLID_1809_" class="st32" x1="1323.5" y1="19.8" x2="1323.5" y2="23.8"/>
	<line id="XMLID_1808_" class="st32" x1="1333.5" y1="19.8" x2="1333.5" y2="23.8"/>
	<line id="XMLID_1807_" class="st32" x1="1343.5" y1="19.8" x2="1343.5" y2="23.8"/>
	<line id="XMLID_1806_" class="st32" x1="1353.5" y1="19.8" x2="1353.5" y2="23.8"/>
	<line id="XMLID_1813_" class="st32" x1="1323.5" y1="29.8" x2="1323.5" y2="33.8"/>
	<line id="XMLID_1812_" class="st32" x1="1333.5" y1="29.8" x2="1333.5" y2="33.8"/>
	<line id="XMLID_1811_" class="st32" x1="1343.5" y1="29.8" x2="1343.5" y2="33.8"/>
	<line id="XMLID_1810_" class="st32" x1="1353.5" y1="29.8" x2="1353.5" y2="33.8"/>
	<line id="XMLID_1929_" class="st32" x1="1323.5" y1="39.8" x2="1323.5" y2="43.8"/>
	<line id="XMLID_1928_" class="st32" x1="1333.5" y1="39.8" x2="1333.5" y2="43.8"/>
	<line id="XMLID_1926_" class="st32" x1="1343.5" y1="39.8" x2="1343.5" y2="43.8"/>
	<line id="XMLID_1814_" class="st32" x1="1353.5" y1="39.8" x2="1353.5" y2="43.8"/>
	<line id="XMLID_1933_" class="st32" x1="1323.5" y1="49.6" x2="1323.5" y2="53.6"/>
	<line id="XMLID_1932_" class="st32" x1="1333.5" y1="49.6" x2="1333.5" y2="53.6"/>
	<line id="XMLID_1931_" class="st32" x1="1343.5" y1="49.6" x2="1343.5" y2="53.6"/>
	<line id="XMLID_1930_" class="st32" x1="1353.5" y1="49.6" x2="1353.5" y2="53.6"/>
	<line id="XMLID_1120_" class="st31" x1="1373.5" y1="11.9" x2="1383.5" y2="11.9"/>
	<line id="XMLID_1801_" class="st31" x1="1373.5" y1="21.9" x2="1383.5" y2="21.9"/>
	<line id="XMLID_1802_" class="st31" x1="1373.5" y1="31.9" x2="1383.5" y2="31.9"/>
	<line id="XMLID_1803_" class="st31" x1="1373.5" y1="41.9" x2="1383.5" y2="41.9"/>
	<line id="XMLID_1805_" class="st31" x1="1373.5" y1="51.9" x2="1383.5" y2="51.9"/>
	<path id="XMLID_134_" class="st32" d="M1361.5,61.9h-46c-1.1,0-2-0.9-2-2v-76c0-1.1,0.9-2,2-2h46c1.1,0,2,0.9,2,2v76
		C1363.5,61,1362.6,61.9,1361.5,61.9z"/>
	<circle id="XMLID_1160_" class="st32" cx="670.2" cy="222.4" r="6.2"/>
	<line id="XMLID_2161_" class="st32" x1="689" y1="222.4" x2="724" y2="222.4"/>
	<circle id="XMLID_2164_" class="st31" cx="670.2" cy="242.4" r="6.2"/>
	<line id="XMLID_2163_" class="st31" x1="689" y1="242.4" x2="724" y2="242.4"/>
	<circle id="XMLID_2166_" class="st32" cx="670.2" cy="262.4" r="6.2"/>
	<line id="XMLID_2165_" class="st32" x1="689" y1="262.4" x2="724" y2="262.4"/>
	<line id="XMLID_2170_" class="st32" x1="584" y1="277.6" x2="584" y2="281.2"/>
	<line id="XMLID_2169_" class="st32" x1="574" y1="283" x2="594" y2="283"/>
	<path id="XMLID_2176_" class="st32" d="M599,221.4h15c2.8,0,5,2.2,5,5v40c0,2.8-2.2,5-5,5h-60c-2.8,0-5-2.2-5-5v-40
		c0-2.8,2.2-5,5-5h15"/>
	<polyline id="XMLID_2167_" class="st31" points="584,202.4 579,212.4 579,232.4 564,242.4 564,247.4 574,247.4 	"/>
	<polyline id="XMLID_2171_" class="st31" points="584,202.4 589,212.4 589,232.4 604,242.4 604,247.4 594,247.4 	"/>
	<line id="XMLID_2162_" class="st31" x1="574" y1="247.4" x2="574" y2="252.4"/>
	<line id="XMLID_2172_" class="st31" x1="594" y1="247.4" x2="594" y2="252.4"/>
	<line id="XMLID_2173_" class="st32" x1="584" y1="247.4" x2="584" y2="257.4"/>
	<path id="XMLID_2175_" class="st32" d="M597.9,271.4c0-7.7-6.2-13.9-13.9-13.9s-13.9,6.2-13.9,13.9"/>
	<path id="XMLID_2174_" class="st32" d="M569,261.2c-5.5,0-10,4.5-10,10"/>
	<path id="XMLID_2177_" class="st32" d="M600,261.2c5.5,0,10,4.5,10,10"/>
	<path id="XMLID_2168_" class="st31" d="M949,242.4c0,19.1-15.5,34.7-34.7,34.7l-0.3-34.7h-34.4c0-19.1,15.5-34.7,34.7-34.7
		C933.5,207.7,949,223.3,949,242.4z"/>
	<path id="XMLID_2187_" class="st32" d="M904,280.1c-15.3,0-27.7-12.4-27.7-27.7H904V280.1z"/>
	<path id="XMLID_2184_" class="st31" d="M783.9,267.4v-10l14.4-10v-8l-2.4-2v-8c0-4.4,3.6-8,8-8l0,0c4.4,0,8,3.6,8,8v8l-2,2v8l14,10
		v10"/>
	<path id="XMLID_2196_" class="st32" d="M764.1,267.4v-7.6l11-7.6v-6.1l-1.8-1.5v-6.1c0-3.3,2.7-6.1,6.1-6.1l0,0
		c3.3,0,6.1,2.7,6.1,6.1v6.1l-1.5,1.5v1.8"/>
	<path id="XMLID_2197_" class="st32" d="M844.1,267.4v-7.6l-11-7.6v-6.1l1.8-1.5v-6.1c0-3.3-2.7-6.1-6.1-6.1l0,0
		c-3.3,0-6.1,2.7-6.1,6.1v6.1l1.5,1.5v1.8"/>
	<g id="XMLID_2199_">
		<circle id="XMLID_2198_" class="st32" cx="1024" cy="209.8" r="6.2"/>
		<line id="XMLID_2195_" class="st32" x1="1024" y1="216.1" x2="1024" y2="223.6"/>
	</g>
	<g id="XMLID_2201_">
		<circle id="XMLID_2203_" class="st32" cx="1024" cy="276.2" r="6.2"/>
		<line id="XMLID_2202_" class="st32" x1="1024" y1="269.9" x2="1024" y2="262.4"/>
	</g>
	<g id="XMLID_2216_">
		<circle id="XMLID_2218_" class="st32" cx="1057.2" cy="243" r="6.2"/>
		<line id="XMLID_2217_" class="st32" x1="1050.9" y1="243" x2="1043.4" y2="243"/>
	</g>
	<g id="XMLID_2213_">
		<circle id="XMLID_2215_" class="st32" cx="990.8" cy="243" r="6.2"/>
		<line id="XMLID_2214_" class="st32" x1="997.1" y1="243" x2="1004.6" y2="243"/>
	</g>
	<g id="XMLID_2222_">
		<circle id="XMLID_2224_" class="st32" cx="1047.5" cy="219.5" r="6.2"/>
		<line id="XMLID_2223_" class="st32" x1="1043" y1="223.9" x2="1037.7" y2="229.2"/>
	</g>
	<g id="XMLID_696_">
		<circle id="XMLID_763_" class="st32" cx="1000.5" cy="219.5" r="6.2"/>
		<line id="XMLID_760_" class="st32" x1="1005" y1="223.9" x2="1010.3" y2="229.2"/>
	</g>
	<g id="XMLID_2219_">
		<circle id="XMLID_2221_" class="st32" cx="1000.5" cy="266.5" r="6.2"/>
		<line id="XMLID_2220_" class="st32" x1="1005" y1="262" x2="1010.3" y2="256.7"/>
	</g>
	<g id="XMLID_2228_">
		<circle id="XMLID_2230_" class="st32" cx="1047.5" cy="266.5" r="6.2"/>
		<line id="XMLID_2229_" class="st32" x1="1043" y1="262" x2="1037.7" y2="256.7"/>
	</g>
	<path id="XMLID_670_" class="st31" d="M1247.1,26.9h6.7v11c0,2.2-1.5,4-3.3,4h-13.3c-1.8,0-3.3-1.8-3.3-4v-32c0-2.2,1.5-4,3.3-4
		h13.3c1.8,0,3.3,1.8,3.3,4v4v7"/>
	<path id="XMLID_766_" class="st31" d="M1278.8,41.9h-10c-2.8,0-5-2.2-5-5v-30c0-2.8,2.2-5,5-5h10c2.8,0,5,2.2,5,5v30
		C1283.8,39.7,1281.6,41.9,1278.8,41.9z"/>
	<path id="XMLID_944_" class="st31" d="M1203.8,41.9c0-5.3,0-40,0-40l20,40v-40"/>
	<g id="XMLID_7574_">
		<path id="XMLID_1092_" class="st32" d="M994,46.9v-15l20-10v-9.2l-3.2-5.8V-3c0-8.2,4.8-15,13-15h0.5c8.2,0,13,6.8,13,15v9.9
			l-3.2,5V22l20,10.1v14.8"/>
		<path id="XMLID_1503_" class="st31" d="M1019,26.9c0,2.8,2.2,5,5,5c2.8,0,5-2.2,5-5"/>
		<polygon id="XMLID_1364_" class="st31" points="1024,61.9 1018.5,56.9 1020.9,31.9 1024,31.9 1027.1,31.9 1029.6,56.9 		"/>
	</g>
	<g id="XMLID_7576_">
		<path id="XMLID_7580_" class="st32" d="M564.1,157.4v-10l20-10v-9.2l-3.2-5.8v-9.9c0-8.2,4.7-15,13-15h0.5c8.2,0,13,6.7,13,15v9.9
			l-3.2,5v10.1l20,10.1v9.8"/>
		<path id="XMLID_7579_" class="st31" d="M589.1,142.4c0,2.8,2.2,5,5,5c2.8,0,5-2.2,5-5"/>
		<polygon id="XMLID_7578_" class="st31" points="594.1,177.3 588.6,172.3 591,147.4 594.1,147.4 597.2,147.4 599.7,172.3 		"/>
	</g>
	<path id="XMLID_7575_" class="st32" d="M544,157.4v-11.2l13.4-6.7v-6.1l-2.2-3.9v-6.6c0-5.5,3.2-10,8.7-10h0.3
		c5.5,0,8.7,4.5,8.7,10v6.6l-2.2,3.3v6.7"/>
	<path id="XMLID_1517_" class="st32" d="M877.1,36.9c-2-4.7-3.1-9.9-3.1-15.4c0-21.9,17.7-39.6,39.6-39.6c12.2,0,23.1,5.5,30.4,14.2
		"/>
	<path id="XMLID_1504_" class="st32" d="M950.5,6.9c1.8,4.5,2.8,9.5,2.8,14.6c0,21.9-17.7,39.6-39.6,39.6
		c-11.8,0-22.4-5.2-29.7-13.3"/>
	<circle id="XMLID_1506_" class="st31" cx="913.6" cy="21.6" r="21.1"/>
	<ellipse id="XMLID_1508_" class="st31" cx="914" cy="21.6" rx="10" ry="21.1"/>
	<line id="XMLID_1505_" class="st31" x1="914" y1="0.7" x2="914" y2="42.6"/>
	<line id="XMLID_1507_" class="st31" x1="894" y1="14.9" x2="933.2" y2="14.9"/>
	<line id="XMLID_1510_" class="st31" x1="894" y1="28.9" x2="933.2" y2="28.9"/>
	<g id="XMLID_1511_">
		<line id="XMLID_1509_" class="st32" x1="944" y1="-13.8" x2="944" y2="-3.8"/>
		<line id="XMLID_1512_" class="st32" x1="934" y1="-3.8" x2="944" y2="-3.8"/>
	</g>
	<g id="XMLID_1514_">
		<line id="XMLID_1516_" class="st32" x1="884" y1="57.8" x2="884" y2="47.8"/>
		<line id="XMLID_1515_" class="st32" x1="894" y1="47.8" x2="884" y2="47.8"/>
	</g>
	<g id="XMLID_2240_">
		<line id="XMLID_2353_" class="st31" x1="1131.3" y1="202.1" x2="1136.7" y2="207.4"/>
		<line id="XMLID_2241_" class="st31" x1="1131.3" y1="212.7" x2="1136.7" y2="207.4"/>
	</g>
	<g id="XMLID_2355_">
		<line id="XMLID_2357_" class="st31" x1="1136.7" y1="282.7" x2="1131.3" y2="277.4"/>
		<line id="XMLID_2356_" class="st31" x1="1136.7" y1="272.1" x2="1131.3" y2="277.4"/>
	</g>
	<path id="XMLID_2364_" class="st32" d="M1154.1,248.5l-2.4-1.1c0.6-2.4,0.7-4.8,0.3-7.1l2.5-0.9c0.8-0.3,1.2-1.1,0.9-1.9l-1.5-4.2
		c-0.3-0.8-1.1-1.2-1.9-0.9l-2.5,0.9c-1.2-2-2.8-3.8-4.8-5.3l1.1-2.4c0.3-0.7,0-1.6-0.7-2l-4.1-1.9c-0.7-0.3-1.6,0-2,0.7l-1.1,2.4
		c-2.4-0.6-4.8-0.7-7.1-0.3l-0.9-2.5c-0.3-0.8-1.1-1.2-1.9-0.9l-4.2,1.5c-0.8,0.3-1.2,1.1-0.9,1.9l0.9,2.5c-2,1.2-3.8,2.8-5.3,4.8
		l-2.4-1.1c-0.7-0.3-1.6,0-2,0.7l-1.9,4.1c-0.3,0.7,0,1.6,0.7,2l2.4,1.1c-0.6,2.4-0.7,4.8-0.3,7.1l-2.5,0.9
		c-0.8,0.3-1.2,1.1-0.9,1.9l1.5,4.2c0.3,0.8,1.1,1.2,1.9,0.9l2.5-0.9c1.2,2,2.9,3.8,4.8,5.3l-1.1,2.4c-0.3,0.7,0,1.6,0.7,2l4.1,1.9
		c0.7,0.3,1.6,0,2-0.7l1.1-2.4c2.4,0.6,4.8,0.7,7.1,0.3l0.9,2.5c0.3,0.8,1.1,1.2,1.9,0.9l4.2-1.5c0.8-0.3,1.2-1.1,0.9-1.9l-0.9-2.5
		c2-1.2,3.8-2.9,5.3-4.8l2.4,1.1c0.7,0.3,1.6,0,2-0.7l1.9-4.1C1155.2,249.7,1154.8,248.8,1154.1,248.5z"/>
	<g id="XMLID_1520_">
		<path id="XMLID_1519_" class="st32" d="M790.3,36.7l-1.2,3.3c-0.4,1-1.5,1.6-2.6,1.2l-5.6-2.1c-1-0.4-1.6-1.5-1.2-2.6l1.2-3.3
			c-2.8-1.7-5.1-3.9-7-6.4l-3.2,1.5c-1,0.5-2.2,0-2.7-1l-2.5-5.4c-0.5-1,0-2.2,1-2.7l3.2-1.5c-0.7-3.1-0.9-6.3-0.4-9.5L766,7
			c-1-0.4-1.6-1.5-1.2-2.6l2.1-5.6c0.4-1,1.5-1.6,2.6-1.2l3.3,1.2c1.7-2.8,3.9-5.1,6.4-7l-1.5-3.2c-0.5-1,0-2.2,1-2.7l5.4-2.5
			c1-0.5,2.2,0,2.7,1l1.5,3.2c3.1-0.7,6.3-0.9,9.5-0.4l1.2-3.3c0.4-1,1.5-1.6,2.6-1.2l5.6,2.1c1,0.4,1.6,1.5,1.2,2.6l-1.2,3.3
			c2.8,1.7,5.1,3.9,7,6.4l3.2-1.5c1-0.5,2.2,0,2.7,1l2.5,5.4c0.5,1,0,2.2-1,2.7l-3.2,1.5"/>
		<path id="XMLID_1518_" class="st32" d="M794,21.9c-5.5,0-10-4.5-10-10s4.5-10,10-10s10,4.5,10,10"/>
		<g id="XMLID_2362_">
			<path id="XMLID_2360_" class="st31" d="M798.5,33.2h2.1c0.5-2.4,1.4-4.6,2.7-6.6l-1.5-1.5c-0.8-0.8-0.8-2.1,0-2.8l2.5-2.5
				c0.8-0.8,2.1-0.8,2.8,0l1.5,1.5c2-1.3,4.2-2.2,6.6-2.7v-2.1c0-1.1,0.9-2,2-2h3.5c1.1,0,2,0.9,2,2v2.1c2.4,0.5,4.6,1.4,6.6,2.7
				l1.5-1.5c0.8-0.8,2.1-0.8,2.8,0l2.5,2.5c0.8,0.8,0.8,2.1,0,2.8l-1.5,1.5c1.3,2,2.2,4.2,2.7,6.6h2.1c1.1,0,2,0.9,2,2v3.5
				c0,1.1-0.9,2-2,2h-2.1c-0.5,2.4-1.4,4.6-2.7,6.6l1.5,1.5c0.8,0.8,0.8,2.1,0,2.8l-2.5,2.5c-0.8,0.8-2.1,0.8-2.8,0l-1.5-1.5
				c-2,1.3-4.2,2.3-6.6,2.7v2.1c0,1.1-0.9,2-2,2h-3.5c-1.1,0-2-0.9-2-2v-2.1c-2.4-0.5-4.6-1.4-6.6-2.7l-1.5,1.5
				c-0.8,0.8-2.1,0.8-2.8,0l-2.5-2.5c-0.8-0.8-0.8-2.1,0-2.8l1.5-1.5c-1.3-2-2.2-4.2-2.7-6.6h-2.1c-1.1,0-2-0.9-2-2v-3.5
				C796.5,34.1,797.4,33.2,798.5,33.2z"/>
			<circle id="XMLID_1513_" class="st31" cx="819" cy="36.9" r="7.5"/>
		</g>
	</g>
	<g id="XMLID_6572_">
		<path id="XMLID_6577_" class="st34" d="M887.3,129.9l-0.6,1.7c-0.2,0.5-0.8,0.8-1.3,0.6l-2.9-1.1c-0.5-0.2-0.8-0.8-0.6-1.3
			l0.6-1.7c-1.4-0.9-2.7-2-3.6-3.3l-1.6,0.8c-0.5,0.2-1.1,0-1.4-0.5l-1.3-2.8c-0.2-0.5,0-1.1,0.5-1.4l1.6-0.8
			c-0.4-1.6-0.5-3.2-0.2-4.9l-1.7-0.6c-0.5-0.2-0.8-0.8-0.6-1.3l1.1-2.9c0.2-0.5,0.8-0.8,1.3-0.6l1.7,0.6c0.9-1.4,2-2.7,3.3-3.6
			l-0.8-1.6c-0.2-0.5,0-1.1,0.5-1.4l2.8-1.3c0.5-0.2,1.1,0,1.4,0.5l0.8,1.6c1.6-0.4,3.2-0.5,4.9-0.2l0.6-1.7
			c0.2-0.5,0.8-0.8,1.3-0.6l2.9,1.1c0.5,0.2,0.8,0.8,0.6,1.3l-0.6,1.7c1.4,0.9,2.7,2,3.6,3.3l1.6-0.8c0.5-0.2,1.1,0,1.4,0.5l1.3,2.8
			c0.2,0.5,0,1.1-0.5,1.4l-1.6,0.8"/>
		<path id="XMLID_6576_" class="st34" d="M889.2,122.3c-2.9,0-5.2-2.3-5.2-5.2s2.3-5.2,5.2-5.2s5.2,2.3,5.2,5.2"/>
		<g id="XMLID_6573_">
			<path id="XMLID_6575_" class="st30" d="M891.6,128.1h1.1c0.3-1.2,0.7-2.4,1.4-3.4l-0.8-0.8c-0.4-0.4-0.4-1.1,0-1.5l1.3-1.3
				c0.4-0.4,1.1-0.4,1.5,0l0.8,0.8c1-0.7,2.2-1.2,3.4-1.4v-1.1c0-0.6,0.5-1,1-1h1.8c0.6,0,1,0.5,1,1v1.1c1.2,0.3,2.4,0.7,3.4,1.4
				l0.8-0.8c0.4-0.4,1.1-0.4,1.5,0l1.3,1.3c0.4,0.4,0.4,1.1,0,1.5l-0.8,0.8c0.7,1,1.2,2.2,1.4,3.4h1.1c0.6,0,1,0.5,1,1v1.8
				c0,0.6-0.5,1-1,1h-1.1c-0.3,1.2-0.7,2.4-1.4,3.4l0.8,0.8c0.4,0.4,0.4,1.1,0,1.5l-1.3,1.3c-0.4,0.4-1.1,0.4-1.5,0l-0.8-0.8
				c-1,0.7-2.2,1.2-3.4,1.4v1.1c0,0.6-0.5,1-1,1h-1.8c-0.6,0-1-0.5-1-1v-1.1c-1.2-0.3-2.4-0.7-3.4-1.4l-0.9,0.8
				c-0.4,0.4-1.1,0.4-1.5,0l-1.3-1.3c-0.4-0.4-0.4-1.1,0-1.5l0.8-0.8c-0.7-1-1.2-2.2-1.4-3.4h-1.1c-0.6,0-1-0.5-1-1v-1.8
				C890.5,128.6,891,128.1,891.6,128.1z"/>
			<circle id="XMLID_6574_" class="st30" cx="902.1" cy="130" r="3.9"/>
		</g>
	</g>
	<circle id="XMLID_1528_" class="st32" cx="1133.7" cy="242.4" r="10"/>
	<path id="XMLID_1531_" class="st31" d="M1169,242.4c0,19.3-15.7,35-35,35"/>
	<path id="XMLID_1529_" class="st31" d="M1099,242.4c0-19.3,15.7-35,35-35"/>
	<path id="XMLID_2802_" class="st12" d="M1144-88.1c0,0-4.5-5-10-5s-10,5-10,5s4.5,5,10,5S1144-88.1,1144-88.1z"/>
	<circle id="XMLID_3029_" class="st2" cx="1134" cy="-88.1" r="3.8"/>
	<circle id="XMLID_3027_" class="st12" cx="1134" cy="-88.1" r="2.5"/>
	<circle id="XMLID_3028_" class="st35" cx="1244" cy="-88.1" r="7.5"/>
	<circle id="XMLID_3255_" class="st35" cx="1354" cy="-88.1" r="5"/>
	<circle id="XMLID_3258_" class="st36" cx="1464" cy="-88.1" r="5"/>
	<circle id="XMLID_3256_" class="st30" cx="1464" cy="-198.1" r="40"/>
	<polyline id="XMLID_3592_" class="st37" points="1449,-198.1 1464,-184.3 1484,-208.1 	"/>
	<g id="XMLID_2160_">
		<path id="XMLID_3593_" class="st12" d="M1253-190.6h-18c-0.5,0-1-0.5-1-1v-13c0-0.5,0.5-1,1-1h18c0.5,0,1,0.5,1,1v13
			C1254-191.1,1253.5-190.6,1253-190.6z"/>
		<line id="XMLID_3821_" class="st38" x1="1244" y1="-195.1" x2="1255" y2="-203.6"/>
		<line id="XMLID_3823_" class="st38" x1="1244" y1="-195.1" x2="1233" y2="-203.6"/>
	</g>
	<g id="XMLID_4053_">
		<path id="XMLID_4056_" class="st12" d="M593,359.9h-18c-0.5,0-1-0.5-1-1v-13c0-0.5,0.5-1,1-1h18c0.6,0,1,0.5,1,1v13
			C594,359.4,593.5,359.9,593,359.9z"/>
		<line id="XMLID_4055_" class="st38" x1="584" y1="355.4" x2="595" y2="346.9"/>
		<line id="XMLID_4054_" class="st38" x1="584" y1="355.4" x2="573" y2="346.9"/>
	</g>
	<g id="XMLID_1128_">
		<path id="XMLID_1131_" class="st14" d="M922.5,359.9h-18c-0.6,0-1-0.5-1-1v-13c0-0.5,0.4-1,1-1h18c0.5,0,1,0.5,1,1v13
			C923.5,359.4,923,359.9,922.5,359.9z"/>
		<line id="XMLID_1130_" class="st38" x1="913.5" y1="355.4" x2="924.5" y2="346.9"/>
		<line id="XMLID_1129_" class="st38" x1="913.5" y1="355.4" x2="902.5" y2="346.9"/>
	</g>
	<line id="XMLID_3822_" class="st39" x1="1128.9" y1="-205.5" x2="1130.2" y2="-191.5"/>
	<path id="XMLID_3935_" class="st12" d="M1129.8-205.9c0,1.3-0.6,1.5,3.6,0c3-1.1,6.3,0.9,6.3,0.9l-1.8,6.2c0,0-0.4-0.8-4.2-0.6
		c-4.1,0.1-4.2,1-4.2,1L1129.8-205.9z"/>
	<path id="XMLID_953_" class="st9" d="M1013.6,462.9v-14.1c0-1.5,1.7-2.5,3-1.7l12.4,7.1l12.3,7c1.3,0.8,1.3,2.7,0,3.5l-12.3,7
		l-12.4,7.1c-1.3,0.8-3-0.2-3-1.7V462.9z"/>
	<circle id="XMLID_5104_" class="st36" cx="914.7" cy="462.4" r="40"/>
	<path id="XMLID_5103_" class="st14" d="M903.6,462.9v-14.1c0-1.5,1.7-2.5,3-1.7l12.4,7.1l12.3,7c1.3,0.8,1.3,2.7,0,3.5l-12.3,7
		l-12.4,7.1c-1.3,0.8-3-0.2-3-1.7V462.9z"/>
	<g id="XMLID_4275_">
		<circle id="XMLID_4272_" class="st30" cx="1354" cy="352.4" r="25"/>
		<line id="XMLID_4160_" class="st32" x1="1344" y1="352.4" x2="1364" y2="352.4"/>
		<line id="XMLID_4273_" class="st32" x1="1364" y1="352.4" x2="1354" y2="342.4"/>
		<line id="XMLID_4274_" class="st32" x1="1364" y1="352.4" x2="1353.8" y2="362.7"/>
	</g>
	<g id="XMLID_5092_">
		<circle id="XMLID_5096_" class="st30" cx="1354" cy="243" r="25"/>
		<line id="XMLID_5095_" class="st40" x1="1344" y1="243" x2="1364" y2="243"/>
		<line id="XMLID_5094_" class="st40" x1="1364" y1="243" x2="1354" y2="233"/>
		<line id="XMLID_5093_" class="st40" x1="1364" y1="243" x2="1353.8" y2="253.2"/>
	</g>
	<g id="XMLID_4853_">
		<line id="XMLID_4396_" class="st41" x1="1454" y1="242.4" x2="1474" y2="242.4"/>
		<line id="XMLID_4395_" class="st41" x1="1474" y1="242.4" x2="1469" y2="237.4"/>
		<line id="XMLID_4394_" class="st41" x1="1474" y1="242.4" x2="1469" y2="247.4"/>
	</g>
	<g id="XMLID_4855_">
		<line id="XMLID_4858_" class="st42" x1="1563.7" y1="242.4" x2="1583.7" y2="242.4"/>
		<line id="XMLID_4857_" class="st42" x1="1583.7" y1="242.4" x2="1578.7" y2="237.4"/>
		<line id="XMLID_4856_" class="st42" x1="1583.7" y1="242.4" x2="1578.7" y2="247.4"/>
	</g>
	<g id="XMLID_4277_">
		<circle id="XMLID_4281_" class="st30" cx="1244" cy="352.4" r="25"/>
		<line id="XMLID_4280_" class="st32" x1="1254" y1="352.5" x2="1234" y2="352.5"/>
		<line id="XMLID_4279_" class="st32" x1="1234" y1="352.5" x2="1244" y2="362.5"/>
		<line id="XMLID_4278_" class="st32" x1="1234" y1="352.5" x2="1244.2" y2="342.2"/>
	</g>
	<circle id="XMLID_7577_" class="st43" cx="1244" cy="240.2" r="37.8"/>
	<circle id="XMLID_4510_" class="st44" cx="1464" cy="352.4" r="25"/>
	<line id="XMLID_4509_" class="st40" x1="1474" y1="352.5" x2="1454" y2="352.5"/>
	<line id="XMLID_4397_" class="st40" x1="1454" y1="352.5" x2="1464" y2="362.5"/>
	<line id="XMLID_4393_" class="st40" x1="1454" y1="352.5" x2="1464.2" y2="342.2"/>
	<g id="XMLID_2159_">
		<circle id="XMLID_4624_" class="st44" cx="1574" cy="352.4" r="25"/>
		<line id="XMLID_4623_" class="st40" x1="1564" y1="352.4" x2="1584" y2="352.4"/>
		<line id="XMLID_4622_" class="st40" x1="1584" y1="352.4" x2="1574" y2="342.4"/>
		<line id="XMLID_4276_" class="st40" x1="1584" y1="352.4" x2="1573.8" y2="362.7"/>
	</g>
	<g id="XMLID_4852_">
		<circle id="XMLID_4736_" class="st45" cx="571.5" cy="465.7" r="7.5"/>
		<path id="XMLID_4848_" class="st46" d="M565,464.8c0-7.7,6.3-14,14-14"/>
	</g>
	<g id="XMLID_4849_">
		<circle id="XMLID_4851_" class="st45" cx="591.5" cy="465.7" r="7.5"/>
		<path id="XMLID_4850_" class="st46" d="M585,464.8c0-7.7,6.3-14,14-14"/>
	</g>
	<g id="XMLID_186_">
		<path id="XMLID_187_" class="st2" d="M916.7-303.9l-0.2,0.7c-0.5,0.2-0.9,0.4-1.2,0.5s-0.7,0.2-1.1,0.2c-0.6,0-1.1-0.2-1.5-0.5
			c-0.3-0.3-0.5-0.7-0.5-1.2c0-0.2,0-0.4,0-0.6s0.1-0.4,0.1-0.6l0.6-2.3c0.1-0.2,0.1-0.4,0.1-0.6s0.1-0.4,0.1-0.5
			c0-0.3-0.1-0.5-0.2-0.6c-0.1-0.1-0.3-0.2-0.7-0.2c-0.2,0-0.3,0-0.5,0.1c-0.2,0.1-0.3,0.1-0.5,0.1l0.2-0.7c0.4-0.2,0.8-0.3,1.2-0.4
			s0.8-0.2,1.1-0.2c0.6,0,1.1,0.1,1.4,0.4c0.3,0.3,0.5,0.7,0.5,1.2c0,0.1,0,0.3,0,0.5c0,0.2-0.1,0.5-0.1,0.7l-0.6,2.3
			c-0.1,0.2-0.1,0.4-0.1,0.6s-0.1,0.4-0.1,0.5c0,0.3,0.1,0.5,0.2,0.6c0.1,0.1,0.4,0.2,0.7,0.2c0.2,0,0.3,0,0.5-0.1
			C916.3-303.9,916.6-303.8,916.7-303.9z M916.8-313.4c0,0.4-0.1,0.7-0.4,1c-0.3,0.3-0.7,0.4-1.1,0.4s-0.8-0.1-1.1-0.4
			c-0.3-0.3-0.5-0.6-0.5-1s0.2-0.7,0.5-1c0.3-0.3,0.7-0.4,1.1-0.4s0.8,0.1,1.1,0.4C916.7-314.2,916.8-313.8,916.8-313.4z"/>
	</g>
	<g id="XMLID_182_">
		<path id="XMLID_183_" class="st12" d="M1026.3-303.9l-0.2,0.7c-0.5,0.2-0.9,0.4-1.2,0.5c-0.3,0.1-0.7,0.2-1.1,0.2
			c-0.6,0-1.1-0.2-1.5-0.5c-0.3-0.3-0.5-0.7-0.5-1.2c0-0.2,0-0.4,0-0.6s0.1-0.4,0.1-0.6l0.6-2.3c0.1-0.2,0.1-0.4,0.1-0.6
			s0.1-0.4,0.1-0.5c0-0.3-0.1-0.5-0.2-0.6c-0.1-0.1-0.3-0.2-0.7-0.2c-0.2,0-0.3,0-0.5,0.1s-0.3,0.1-0.5,0.1l0.2-0.7
			c0.4-0.2,0.8-0.3,1.2-0.4s0.8-0.2,1.1-0.2c0.6,0,1.1,0.1,1.4,0.4c0.3,0.3,0.5,0.7,0.5,1.2c0,0.1,0,0.3,0,0.5
			c0,0.2-0.1,0.5-0.1,0.7l-0.6,2.3c-0.1,0.2-0.1,0.4-0.1,0.6s-0.1,0.4-0.1,0.5c0,0.3,0.1,0.5,0.2,0.6c0.1,0.1,0.4,0.2,0.7,0.2
			c0.2,0,0.3,0,0.5-0.1C1025.9-303.9,1026.2-303.8,1026.3-303.9z M1026.5-313.4c0,0.4-0.1,0.7-0.4,1c-0.3,0.3-0.7,0.4-1.1,0.4
			s-0.8-0.1-1.1-0.4c-0.3-0.3-0.5-0.6-0.5-1s0.2-0.7,0.5-1c0.3-0.3,0.7-0.4,1.1-0.4s0.8,0.1,1.1,0.4
			C1026.3-314.2,1026.5-313.8,1026.5-313.4z"/>
	</g>
	<g id="XMLID_6529_">
		<path id="XMLID_6791_" class="st32" d="M1233.8,238v-10.3c0-5.3,4.5-9.7,10-9.7l0,0c5.5,0,10,4.4,10,9.7V238H1233.8z"/>
		<path id="XMLID_7573_" class="st32" d="M1229.6,238h28.4c0.5,0,1,0.4,1,1v18c0,0.5-0.5,1-1,1h-28.4c-0.5,0-1-0.5-1-1v-18
			C1228.6,238.4,1229.1,238,1229.6,238z"/>
	</g>
	<line id="XMLID_7581_" class="st32" x1="654" y1="142.4" x2="734" y2="142.4"/>
	<line id="XMLID_7582_" class="st32" x1="659" y1="147.4" x2="729" y2="147.4"/>
	<line id="XMLID_7583_" class="st32" x1="729" y1="147.4" x2="729" y2="142.4"/>
	<line id="XMLID_7584_" class="st32" x1="659" y1="147.4" x2="659" y2="142.4"/>
	<line id="XMLID_7585_" class="st32" x1="664" y1="147.4" x2="664" y2="172.4"/>
	<line id="XMLID_7586_" class="st32" x1="664" y1="173.2" x2="674" y2="173.2"/>
	<line id="XMLID_7587_" class="st32" x1="724" y1="147.4" x2="724" y2="172.4"/>
	<line id="XMLID_7588_" class="st32" x1="724" y1="172.4" x2="714" y2="172.4"/>
	<line id="XMLID_7589_" class="st32" x1="689" y1="117.4" x2="699" y2="117.4"/>
	<line id="XMLID_7590_" class="st32" x1="689" y1="122.4" x2="699" y2="122.4"/>
	<line id="XMLID_7591_" class="st31" x1="679.3" y1="152.4" x2="708.7" y2="152.4"/>
	<line id="XMLID_7592_" class="st31" x1="694" y1="152.4" x2="694" y2="172.4"/>
	<line id="XMLID_7593_" class="st31" x1="684" y1="162.4" x2="704" y2="162.4"/>
	<line id="XMLID_7594_" class="st31" x1="704" y1="162.4" x2="704" y2="172.4"/>
	<line id="XMLID_7595_" class="st31" x1="684" y1="162.4" x2="684" y2="172.4"/>
	<path id="XMLID_7596_" class="st32" d="M679.2,142.4l3-35c0-2.8,2.2-5,5-5h13.5c2.8,0,5,2.2,5,5l3,35"/>
	<path id="XMLID_7597_" class="st32" d="M674.7,142.4l0.9-10c0-2.8,2.2-5,5-5"/>
	<path id="XMLID_7599_" class="st32" d="M713.2,142.4l-0.9-10c0-2.8-2.2-5-5-5"/>
	<g id="XMLID_7602_">
		<path id="XMLID_7598_" class="st32" d="M829,162.4h-40c-2.8,0-5-2.2-5-5v-60c0-2.8,2.2-5,5-5h30l15,15v50
			C834,160.1,831.8,162.4,829,162.4z"/>
		<line id="XMLID_7600_" class="st32" x1="819" y1="92.4" x2="819" y2="107.4"/>
		<line id="XMLID_7601_" class="st32" x1="819" y1="107.4" x2="834" y2="107.4"/>
	</g>
	<g id="XMLID_6564_">
		<path id="XMLID_6553_" class="st32" d="M889,97.4c0-2.8,2.2-5,5-5h30l15,15v50c0,2.8-2.2,5-5,5h-40c-2.8,0-5-2.2-5-5v-19.8"/>
		<line id="XMLID_6566_" class="st32" x1="924" y1="92.4" x2="924" y2="107.4"/>
		<line id="XMLID_6565_" class="st32" x1="924" y1="107.4" x2="939" y2="107.4"/>
	</g>
	<g id="XMLID_6555_">
		<path id="XMLID_6562_" class="st31" d="M824.2,167.2c0,2.8-2.2,5-5,5h-40c-2.8,0-5-2.2-5-5v-60c0-2.8,2.2-5,5-5"/>
	</g>
	<g id="XMLID_6520_">
		<g id="XMLID_6556_">
			<path id="XMLID_6591_" class="st32" d="M999,132v-24.9c0-2.8,2.2-5,5-5h30l15,15v50c0,2.8-2.2,5-5,5h-40c-2.8,0-5-2.2-5-5v-4.8"
				/>
			<line id="XMLID_6559_" class="st32" x1="1034" y1="102.2" x2="1034" y2="117.2"/>
			<line id="XMLID_6558_" class="st32" x1="1034" y1="117.2" x2="1049" y2="117.2"/>
		</g>
		<g id="XMLID_6590_">
			<path id="XMLID_6567_" class="st34" d="M980.6,136l-1.9-1.9c-0.8-0.8-0.8-2.1,0-2.8l4.2-4.2c0.8-0.8,2.1-0.8,2.8,0l1.9,1.9
				L980.6,136z"/>
			<g id="XMLID_6561_">
				<line id="XMLID_6568_" class="st30" x1="983.4" y1="138.9" x2="1001.9" y2="157.4"/>
				<line id="XMLID_6569_" class="st30" x1="990.5" y1="131.8" x2="1009" y2="150.3"/>
				<line id="XMLID_6570_" class="st30" x1="1009" y1="150.3" x2="1009.1" y2="157.3"/>
				<line id="XMLID_6587_" class="st30" x1="1009.1" y1="157.3" x2="1001.9" y2="157.4"/>
				<line id="XMLID_6589_" class="st30" x1="987" y1="135.4" x2="1002.1" y2="150.5"/>
			</g>
		</g>
		<line id="XMLID_6593_" class="st30" x1="1009" y1="162.4" x2="1019" y2="162.4"/>
	</g>
	<g id="XMLID_6516_">
		<g id="XMLID_6596_">
			<path id="XMLID_6599_" class="st31" d="M1116.9,167.4h-11.4c-0.8,0-1.4-0.6-1.4-1.4v-17.1c0-0.8,0.6-1.4,1.4-1.4h8.6l4.3,4.3
				v14.3C1118.3,166.8,1117.6,167.4,1116.9,167.4z"/>
			<line id="XMLID_6598_" class="st31" x1="1114" y1="147.4" x2="1114" y2="151.7"/>
			<line id="XMLID_6597_" class="st31" x1="1114" y1="151.7" x2="1118.3" y2="151.7"/>
		</g>
		<g id="XMLID_6600_">
			<path id="XMLID_6603_" class="st32" d="M1116.9,137.4h-11.4c-0.8,0-1.4-0.6-1.4-1.4v-17.1c0-0.8,0.6-1.4,1.4-1.4h8.6l4.3,4.3
				v14.3C1118.3,136.8,1117.6,137.4,1116.9,137.4z"/>
			<line id="XMLID_6602_" class="st32" x1="1114" y1="117.4" x2="1114" y2="121.7"/>
			<line id="XMLID_6601_" class="st32" x1="1114" y1="121.7" x2="1118.3" y2="121.7"/>
		</g>
		<g id="XMLID_7603_">
			<path id="XMLID_7606_" class="st32" d="M1116.9,107.4h-11.4c-0.8,0-1.4-0.6-1.4-1.4V88.9c0-0.8,0.6-1.4,1.4-1.4h8.6l4.3,4.3v14.3
				C1118.3,106.8,1117.6,107.4,1116.9,107.4z"/>
			<line id="XMLID_7605_" class="st32" x1="1114" y1="87.4" x2="1114" y2="91.7"/>
			<line id="XMLID_7604_" class="st32" x1="1114" y1="91.7" x2="1118.3" y2="91.7"/>
		</g>
		<line id="XMLID_6594_" class="st32" x1="1123.7" y1="156.8" x2="1164" y2="156.8"/>
		<line id="XMLID_7607_" class="st32" x1="1164" y1="156.8" x2="1164" y2="97.4"/>
		<line id="XMLID_7608_" class="st32" x1="1164" y1="97.4" x2="1124" y2="97.4"/>
		<line id="XMLID_7609_" class="st32" x1="1124" y1="97.4" x2="1129.2" y2="92.2"/>
		<line id="XMLID_7610_" class="st32" x1="1124" y1="97.4" x2="1129" y2="102.4"/>
	</g>
	<g id="XMLID_6517_">
		<path id="XMLID_7611_" class="st32" d="M1281.8,162.4h-66c-1.1,0-2-0.9-2-2v-46.9c0-1.1,0.9-2,2-2h66c1.1,0,2,0.9,2,2v46.9
			C1283.8,161.5,1282.9,162.4,1281.8,162.4z"/>
		<line id="XMLID_7612_" class="st32" x1="1213.8" y1="112.4" x2="1228.8" y2="92.4"/>
		<line id="XMLID_7613_" class="st32" x1="1228.8" y1="92.4" x2="1268.8" y2="92.4"/>
		<line id="XMLID_7614_" class="st32" x1="1268.8" y1="92.4" x2="1283.8" y2="112.4"/>
		<line id="XMLID_7615_" class="st32" x1="1248.8" y1="92.4" x2="1248.8" y2="111.5"/>
		<line id="XMLID_7616_" class="st31" x1="1233.8" y1="127.4" x2="1263.8" y2="127.4"/>
		<line id="XMLID_7618_" class="st31" x1="1233.8" y1="137.4" x2="1263.8" y2="137.4"/>
		<line id="XMLID_7619_" class="st31" x1="1233.8" y1="147.4" x2="1263.8" y2="147.4"/>
	</g>
	<line id="XMLID_7640_" class="st31" x1="799" y1="117.4" x2="819" y2="117.4"/>
	<line id="XMLID_7643_" class="st31" x1="799" y1="127.4" x2="819" y2="127.4"/>
	<line id="XMLID_7644_" class="st31" x1="799" y1="137.4" x2="819" y2="137.4"/>
	<circle id="XMLID_6526_" class="st31" cx="1496.5" cy="107.4" r="7.5"/>
	<ellipse id="XMLID_6608_" class="st32" cx="1539" cy="137.7" rx="5" ry="5.2"/>
	<circle id="XMLID_6609_" class="st32" cx="1569" cy="117.4" r="5"/>
	<circle id="XMLID_6612_" class="st32" cx="1594" cy="142.6" r="5"/>
	<circle id="XMLID_6613_" class="st32" cx="1613.7" cy="102.4" r="5"/>
	<g id="XMLID_6592_">
		<line id="XMLID_6554_" class="st32" x1="1424" y1="92.4" x2="1444" y2="112.4"/>
		<line id="XMLID_6557_" class="st32" x1="1444" y1="92.4" x2="1424" y2="112.4"/>
	</g>
	<g id="XMLID_6588_">
		<line id="XMLID_6560_" class="st32" x1="1494" y1="146.2" x2="1474" y2="166.2"/>
		<line id="XMLID_6563_" class="st32" x1="1474" y1="146.2" x2="1494" y2="166.2"/>
	</g>
	<g id="XMLID_6606_">
		<circle id="XMLID_6552_" class="st31" cx="1443.9" cy="162.7" r="9.8"/>
		<circle id="XMLID_6584_" class="st14" cx="1443.9" cy="162.7" r="5"/>
	</g>
	<g id="XMLID_6605_">
		<path id="XMLID_6583_" class="st32" d="M1483.9,107.4c-22.1,0-40,17.9-40,40"/>
		<line id="XMLID_6595_" class="st32" x1="1483.9" y1="107.4" x2="1478.9" y2="102.4"/>
		<line id="XMLID_6604_" class="st32" x1="1483.9" y1="107.4" x2="1478.9" y2="112.4"/>
	</g>
	<line id="XMLID_6607_" class="st32" x1="1546.7" y1="132.4" x2="1560.4" y2="123.2"/>
	<line id="XMLID_6614_" class="st32" x1="1575.6" y1="124.3" x2="1580.6" y2="129.9"/>
	<line id="XMLID_6617_" class="st32" x1="1602.3" y1="126.7" x2="1609.7" y2="110.8"/>
	<g id="XMLID_6620_">
		<circle id="XMLID_6619_" class="st31" cx="1593.7" cy="142.4" r="12.5"/>
		<line id="XMLID_6618_" class="st31" x1="1602.6" y1="151.3" x2="1613.7" y2="162.4"/>
	</g>
	<polyline id="XMLID_6633_" class="st37" points="1343.8,-418.1 1356.5,-406.5 1373.3,-426.5 	"/>
	<path id="XMLID_6628_" class="st32" d="M1356.1-456.5c0,0,9.9,15,35,15c0,0,4.2,45.7-30,62.8c-1.6,0.8-3.2,1.5-5,2.2"/>
	<path id="XMLID_6632_" class="st32" d="M1355.9-456.5c0,0-9.9,15-35,15c0,0-4.6,50,35,65"/>
	<g id="XMLID_179_">
		<path id="XMLID_180_" d="M1572.4,19.8c0.4,0,0.8,0,1.1-0.1s0.7-0.2,1-0.3s0.5-0.3,0.8-0.6c0.2-0.2,0.3-0.5,0.4-0.9h1.5v11.2h-2
			v-7.9h-2.8V19.8z"/>
	</g>
	<circle id="XMLID_6546_" class="st30" cx="1576" cy="-85.7" r="12.5"/>
	<g id="XMLID_176_">
		<path id="XMLID_177_" d="M1579.9-80.3h-7.6c0-0.9,0.2-1.7,0.7-2.4c0.4-0.7,1-1.3,1.8-1.8c0.4-0.3,0.7-0.5,1.1-0.8s0.8-0.5,1.1-0.8
			c0.3-0.3,0.6-0.6,0.8-0.9c0.2-0.3,0.3-0.7,0.3-1.2c0-0.2,0-0.4-0.1-0.6c0-0.2-0.1-0.4-0.3-0.6s-0.3-0.4-0.6-0.5
			c-0.2-0.1-0.6-0.2-1-0.2s-0.7,0.1-0.9,0.2s-0.4,0.3-0.6,0.6c-0.1,0.3-0.2,0.5-0.3,0.9c-0.1,0.3-0.1,0.7-0.1,1.1h-1.8
			c0-0.6,0.1-1.2,0.2-1.7c0.2-0.5,0.4-1,0.7-1.4c0.3-0.4,0.7-0.7,1.2-0.9c0.5-0.2,1-0.3,1.7-0.3s1.3,0.1,1.7,0.3
			c0.5,0.2,0.8,0.5,1.1,0.8c0.3,0.3,0.5,0.7,0.6,1.1s0.2,0.8,0.2,1.1c0,0.4-0.1,0.9-0.2,1.2c-0.1,0.4-0.3,0.7-0.6,1
			c-0.2,0.3-0.5,0.6-0.8,0.8c-0.3,0.3-0.6,0.5-0.9,0.7s-0.6,0.4-1,0.6s-0.6,0.4-0.9,0.6s-0.5,0.4-0.7,0.6s-0.3,0.5-0.4,0.7h5.5v1.8
			H1579.9z"/>
	</g>
	<circle id="XMLID_6585_" class="st30" cx="1576" cy="-196.5" r="12.5"/>
	<g id="XMLID_173_">
		<path id="XMLID_174_" d="M1575.2-197.6c0.3,0,0.6,0,0.9-0.1s0.6-0.1,0.8-0.3s0.4-0.3,0.6-0.6c0.1-0.2,0.2-0.5,0.2-0.9
			c0-0.5-0.2-0.9-0.5-1.2c-0.3-0.3-0.7-0.4-1.3-0.4c-0.3,0-0.6,0.1-0.8,0.2s-0.4,0.3-0.6,0.5s-0.3,0.5-0.3,0.7
			c-0.1,0.3-0.1,0.6-0.1,0.8h-1.8c0-0.5,0.1-1,0.3-1.5s0.4-0.9,0.7-1.2s0.7-0.6,1.1-0.8c0.4-0.2,1-0.3,1.5-0.3
			c0.4,0,0.9,0.1,1.3,0.2s0.8,0.3,1.1,0.6s0.6,0.6,0.8,0.9c0.2,0.4,0.3,0.8,0.3,1.3c0,0.6-0.1,1.1-0.4,1.5s-0.7,0.7-1.2,0.9l0,0
			c0.6,0.1,1.1,0.4,1.5,1s0.5,1.1,0.5,1.8c0,0.5-0.1,1-0.3,1.4c-0.2,0.4-0.5,0.8-0.9,1.1s-0.8,0.5-1.3,0.7s-1,0.2-1.5,0.2
			c-0.7,0-1.2-0.1-1.7-0.3s-0.9-0.5-1.2-0.8c-0.3-0.3-0.6-0.8-0.7-1.2c-0.2-0.5-0.3-1-0.3-1.6h1.8c0,0.7,0.1,1.3,0.5,1.7
			c0.4,0.5,0.9,0.7,1.6,0.7c0.6,0,1.1-0.2,1.5-0.5s0.6-0.8,0.6-1.5c0-0.4-0.1-0.8-0.3-1c-0.2-0.3-0.4-0.5-0.7-0.6
			c-0.3-0.1-0.6-0.2-0.9-0.2s-0.7,0-1.1,0v-1.2H1575.2z"/>
	</g>
	<circle id="XMLID_6616_" class="st30" cx="1576" cy="-306.5" r="12.5"/>
	<g id="XMLID_169_">
		<path id="XMLID_170_" d="M1579.9-303.7h-1.4v2.7h-1.7v-2.7h-4.8v-1.8l4.8-6.7h1.7v7.1h1.4V-303.7z M1573.4-305.2h3.4v-4.9l0,0
			L1573.4-305.2z"/>
	</g>
</g>
<polyline id="XMLID_306_" class="st31" points="797.9,-88.4 802.9,-83.1 812.2,-93.1 "/>
<g id="XMLID_136_">
	<line id="XMLID_699_" class="st47" x1="900.8" y1="-209.9" x2="925.8" y2="-184.9"/>
	<line id="XMLID_948_" class="st47" x1="925.8" y1="-209.9" x2="900.8" y2="-184.9"/>
</g>
<g id="XMLID_4050_">
	<line id="XMLID_4052_" class="st47" x1="1118.7" y1="448.1" x2="1148.7" y2="478.1"/>
	<line id="XMLID_4051_" class="st47" x1="1148.7" y1="448.1" x2="1118.7" y2="478.1"/>
</g>
<g id="XMLID_6644_">
	<line id="XMLID_6646_" class="st48" x1="675.6" y1="558.1" x2="705.6" y2="588.1"/>
	<line id="XMLID_6645_" class="st48" x1="705.6" y1="558.1" x2="675.6" y2="588.1"/>
</g>
<g id="XMLID_6580_">
	<line id="XMLID_6582_" class="st36" x1="788.7" y1="558.1" x2="818.7" y2="588.1"/>
	<line id="XMLID_6581_" class="st36" x1="818.7" y1="558.1" x2="788.7" y2="588.1"/>
</g>
<g id="XMLID_2178_">
	<line id="XMLID_2180_" class="st46" x1="797" y1="449.9" x2="809.5" y2="462.4"/>
	<line id="XMLID_2179_" class="st46" x1="809.5" y1="462.4" x2="797" y2="474.9"/>
</g>
<g id="XMLID_2181_">
	<line id="XMLID_2183_" class="st46" x1="700.3" y1="449.9" x2="687.7" y2="462.4"/>
	<line id="XMLID_2182_" class="st46" x1="687.8" y1="462.4" x2="700.3" y2="474.9"/>
</g>
<polyline id="XMLID_1530_" class="st40" points="913,-93.1 918,-88.1 913,-83.1 "/>
<polyline id="XMLID_2803_" class="st49" points="1023,-93.1 1028,-88.1 1023,-83.1 "/>
<line id="XMLID_3141_" class="st50" x1="1244" y1="-88.3" x2="1244" y2="-93.3"/>
<line id="XMLID_3143_" class="st50" x1="1244" y1="-88.3" x2="1246.5" y2="-85.8"/>
<line id="XMLID_3142_" class="st39" x1="1357.3" y1="-84.3" x2="1360.3" y2="-81.3"/>
<line id="XMLID_3257_" class="st51" x1="1467.3" y1="-84.3" x2="1470.3" y2="-81.3"/>
<g id="XMLID_6525_">
	<g id="XMLID_954_">
		<path id="XMLID_6636_" class="st32" d="M1501.4-426.3v-20c0-2.8-2.2-5-5-5h-60c-2.8,0-5,2.2-5,5v40c0,2.8,2.2,5,5,5h48.6"/>
		<line id="XMLID_6635_" class="st32" x1="1466.4" y1="-396.3" x2="1466.4" y2="-391.6"/>
		<line id="XMLID_6634_" class="st32" x1="1456.4" y1="-391.5" x2="1476.4" y2="-391.5"/>
	</g>
	<circle id="XMLID_6638_" class="st36" cx="1496.5" cy="-411.3" r="9.7"/>
	<line id="XMLID_6519_" class="st51" x1="1503.5" y1="-404.4" x2="1509.3" y2="-398.6"/>
</g>
<path id="XMLID_3936_" class="st12" d="M1024-190.6L1024-190.6c-2.7,0-4.9,0.1-4.9-2.6l0,0c0-2.7,2.2-4.9,4.9-4.9l0,0
	c2.7,0,4.9,2.2,4.9,4.9l0,0C1028.9-190.5,1026.7-190.6,1024-190.6z"/>
<circle id="XMLID_4048_" class="st12" cx="1024" cy="-202.9" r="2.8"/>
<g id="Layer_3">
	<path id="XMLID_5089_" class="st42" d="M1494,13.9v36c0,1.1-0.9,2-2,2h-56c-1.1,0-2-0.9-2-2v-36"/>
	<line id="XMLID_5566_" class="st42" x1="1456.8" y1="-3.1" x2="1464" y2="-8.1"/>
	<line id="XMLID_1265_" class="st42" x1="1434" y1="12.9" x2="1444" y2="5.9"/>
	<line id="XMLID_5567_" class="st42" x1="1471.1" y1="-3.1" x2="1464" y2="-8.1"/>
	<line id="XMLID_5081_" class="st42" x1="1494" y1="12.9" x2="1484" y2="5.9"/>
	<line id="XMLID_5085_" class="st42" x1="1434.9" y1="51.1" x2="1457.9" y2="28.1"/>
	<line id="XMLID_5086_" class="st42" x1="1493.1" y1="51.1" x2="1470.1" y2="28"/>
	<path id="XMLID_5087_" class="st42" d="M1444,19.1V1.9c0-2.8,2.2-5,5-5h22.2h7.8c2.8,0,5,2.2,5,5v4v13.2"/>
	<line id="XMLID_5082_" class="st42" x1="1434" y1="12.9" x2="1464" y2="31.9"/>
	<line id="XMLID_5084_" class="st42" x1="1464" y1="31.9" x2="1494" y2="12.9"/>
	<line id="XMLID_5088_" class="st42" x1="1454" y1="6.9" x2="1474" y2="6.9"/>
	<line id="XMLID_5090_" class="st42" x1="1454" y1="11.9" x2="1474" y2="11.9"/>
	<line id="XMLID_5091_" class="st42" x1="1454" y1="16.9" x2="1474" y2="16.9"/>
</g>
<g id="Layer_4">
	<line id="XMLID_6523_" class="st31" x1="1323.6" y1="157.3" x2="1313.5" y2="162.4"/>
	<line id="XMLID_6548_" class="st52" x1="1353.5" y1="142.4" x2="1325" y2="156.6"/>
	<line id="XMLID_6540_" class="st31" x1="1353.5" y1="92.4" x2="1348.5" y2="97.4"/>
	<line id="XMLID_6541_" class="st31" x1="1353.5" y1="92.4" x2="1358.5" y2="97.4"/>
	<line id="XMLID_6542_" class="st31" x1="1313.5" y1="162.4" x2="1315.5" y2="156.2"/>
	<line id="XMLID_6543_" class="st31" x1="1313.5" y1="162.4" x2="1319.5" y2="164.4"/>
	<line id="XMLID_6551_" class="st31" x1="1383" y1="157.7" x2="1392.5" y2="162.4"/>
	<line id="XMLID_6550_" class="st52" x1="1352.5" y1="142.4" x2="1380.9" y2="156.6"/>
	<line id="XMLID_6549_" class="st31" x1="1392.5" y1="162.4" x2="1390.5" y2="156.2"/>
	<line id="XMLID_6544_" class="st31" x1="1392.5" y1="162.4" x2="1386.5" y2="164.4"/>
	<line id="XMLID_6521_" class="st31" x1="1353.5" y1="92.4" x2="1353.5" y2="102.4"/>
	<g id="XMLID_6545_">
		<g id="XMLID_6639_">
			<line id="XMLID_6643_" class="st53" x1="1353.5" y1="107.4" x2="1353.5" y2="107.9"/>
			<line id="XMLID_6642_" class="st54" x1="1353.5" y1="108.8" x2="1353.5" y2="114.2"/>
			<line id="XMLID_6641_" class="st55" x1="1353.5" y1="116.8" x2="1353.5" y2="133.8"/>
			<line id="XMLID_6640_" class="st53" x1="1353.5" y1="136.5" x2="1353.5" y2="137"/>
		</g>
	</g>
	<line id="XMLID_6531_" class="st32" x1="1353.5" y1="102" x2="1323.5" y2="117"/>
	<line id="XMLID_6532_" class="st32" x1="1323.5" y1="117.1" x2="1323.5" y2="156.9"/>
	<line id="XMLID_6533_" class="st32" x1="1323.5" y1="157.4" x2="1353.5" y2="172.4"/>
	<line id="XMLID_6534_" class="st32" x1="1353.5" y1="172.4" x2="1383.5" y2="157.2"/>
	<line id="XMLID_6535_" class="st32" x1="1383.5" y1="156.9" x2="1383.5" y2="117.1"/>
	<line id="XMLID_6536_" class="st32" x1="1383.5" y1="117" x2="1353.5" y2="102"/>
	<line id="XMLID_6537_" class="st32" x1="1323.5" y1="117" x2="1353.5" y2="132"/>
	<line id="XMLID_6538_" class="st32" x1="1353.5" y1="132" x2="1383.5" y2="117"/>
	<line id="XMLID_5101_" class="st42" x1="1338.5" y1="-308.1" x2="1358.5" y2="-308.1"/>
	<line id="XMLID_5100_" class="st42" x1="1358.5" y1="-308.1" x2="1348.5" y2="-318.1"/>
	<line id="XMLID_5099_" class="st42" x1="1358.5" y1="-308.1" x2="1348.3" y2="-297.8"/>
	<line id="XMLID_5098_" class="st42" x1="1257" y1="-307.2" x2="1237" y2="-307.2"/>
	<line id="XMLID_5097_" class="st42" x1="1237" y1="-307.2" x2="1247" y2="-297.2"/>
	<line id="XMLID_4854_" class="st42" x1="1237" y1="-307.2" x2="1247.2" y2="-317.5"/>
	<g id="XMLID_651_">
		<circle id="XMLID_5570_" class="st43" cx="564" cy="-87.4" r="30"/>
		<circle id="XMLID_5569_" class="st43" cx="604" cy="-87.4" r="30"/>
		<circle id="XMLID_5568_" class="st14" cx="604" cy="-87.4" r="20"/>
		<circle id="XMLID_5571_" class="st14" cx="564" cy="-87.4" r="20"/>
		<g id="XMLID_5729_" class="st56">
			<path id="XMLID_5730_" class="st2" d="M555-91.2l-0.4,2.5l0,0c0.3-0.3,0.6-0.5,1-0.7c0.4-0.1,0.8-0.2,1.2-0.2
				c0.6,0,1,0.1,1.5,0.3c0.4,0.2,0.8,0.5,1.1,0.8c0.3,0.3,0.5,0.7,0.7,1.2c0.2,0.5,0.2,1,0.2,1.5c0,0.6-0.1,1.1-0.3,1.6
				s-0.5,0.9-0.9,1.3s-0.8,0.6-1.3,0.8s-1,0.3-1.6,0.3c-0.5,0-1.1-0.1-1.6-0.2s-0.9-0.4-1.3-0.7c-0.4-0.3-0.7-0.7-0.9-1.1
				s-0.3-1-0.4-1.5h2.3c0.1,0.5,0.2,0.9,0.6,1.2c0.3,0.3,0.8,0.5,1.3,0.5c0.3,0,0.6-0.1,0.8-0.2c0.2-0.1,0.4-0.3,0.6-0.5
				s0.3-0.4,0.4-0.7c0.1-0.3,0.1-0.5,0.1-0.8s0-0.6-0.1-0.8c-0.1-0.2-0.2-0.5-0.4-0.7s-0.4-0.3-0.6-0.4c-0.2-0.1-0.5-0.2-0.8-0.2
				c-0.4,0-0.7,0.1-1,0.2c-0.3,0.1-0.5,0.4-0.7,0.7h-2l1.1-6.2h6.3v1.9H555V-91.2z"/>
			<path id="XMLID_5732_" class="st2" d="M561.2-90.3c0.2-0.7,0.5-1.3,0.9-1.8c0.4-0.4,0.8-0.8,1.3-1s1-0.3,1.6-0.3s1.1,0.1,1.6,0.3
				c0.5,0.2,0.9,0.5,1.3,1c0.4,0.4,0.7,1,0.9,1.8s0.3,1.7,0.3,2.7c0,1.1-0.1,2.1-0.3,2.8s-0.5,1.4-0.9,1.8c-0.4,0.4-0.8,0.8-1.3,1
				s-1,0.3-1.6,0.3s-1.1-0.1-1.6-0.3s-0.9-0.5-1.3-1c-0.4-0.4-0.7-1-0.9-1.8s-0.3-1.7-0.3-2.8C560.9-88.6,561-89.6,561.2-90.3z
				 M563.2-86.4c0,0.5,0.1,0.9,0.2,1.3c0.1,0.4,0.3,0.8,0.5,1.1c0.2,0.3,0.6,0.4,1.1,0.4s0.8-0.1,1.1-0.4c0.3-0.3,0.4-0.7,0.5-1.1
				c0.1-0.4,0.2-0.9,0.2-1.3c0-0.5,0-0.8,0-1.2c0-0.2,0-0.4,0-0.7c0-0.3,0-0.6-0.1-0.8c0-0.3-0.1-0.6-0.2-0.9s-0.2-0.5-0.3-0.8
				c-0.1-0.2-0.3-0.4-0.5-0.5c-0.2-0.1-0.5-0.2-0.8-0.2c-0.3,0-0.6,0.1-0.8,0.2s-0.4,0.3-0.5,0.5s-0.2,0.5-0.3,0.8
				c-0.1,0.3-0.1,0.6-0.2,0.9c0,0.3-0.1,0.6-0.1,0.8c0,0.3,0,0.5,0,0.7C563.2-87.2,563.2-86.9,563.2-86.4z"/>
		</g>
		<g id="XMLID_5722_" class="st56">
			<path id="XMLID_5723_" class="st2" d="M572.5-88.8c0.2,0.1,0.4,0.2,0.5,0.4c0.1,0.2,0.2,0.4,0.3,0.6c0.1,0.2,0.1,0.5,0.1,0.7
				s0,0.5-0.1,0.7c-0.1,0.2-0.2,0.4-0.3,0.6s-0.3,0.3-0.5,0.4s-0.4,0.1-0.7,0.1s-0.5,0-0.7-0.1c-0.2-0.1-0.4-0.2-0.5-0.4
				c-0.1-0.2-0.2-0.4-0.3-0.6c-0.1-0.2-0.1-0.5-0.1-0.7s0-0.5,0.1-0.7c0.1-0.2,0.2-0.4,0.3-0.6c0.1-0.2,0.3-0.3,0.5-0.4
				c0.2-0.1,0.4-0.1,0.7-0.1C572-89,572.3-88.9,572.5-88.8z M571.2-88.4c-0.1,0.1-0.2,0.2-0.3,0.3c-0.1,0.1-0.1,0.3-0.2,0.5
				c0,0.2,0,0.3,0,0.5s0,0.3,0,0.5s0.1,0.3,0.2,0.5c0.1,0.1,0.2,0.3,0.3,0.3c0.1,0,0.3,0.1,0.5,0.1s0.4,0,0.5-0.1
				c0.1-0.1,0.2-0.2,0.3-0.3s0.1-0.3,0.2-0.5c0-0.2,0-0.3,0-0.5s0-0.3,0-0.5s-0.1-0.3-0.2-0.5s-0.2-0.3-0.3-0.3
				c-0.1-0.1-0.3-0.1-0.5-0.1S571.4-88.5,571.2-88.4z M576.4-89.2l-4.5,7.6h-0.5l4.5-7.6H576.4z M576.9-85.4
				c0.2,0.1,0.4,0.2,0.5,0.4c0.1,0.2,0.2,0.4,0.3,0.6c0.1,0.2,0.1,0.5,0.1,0.7s0,0.5-0.1,0.7c-0.1,0.2-0.2,0.4-0.3,0.6
				c-0.1,0.2-0.3,0.3-0.5,0.4c-0.2,0.1-0.4,0.1-0.7,0.1s-0.5,0-0.7-0.1s-0.4-0.2-0.5-0.4c-0.1-0.2-0.2-0.4-0.3-0.6
				c-0.1-0.2-0.1-0.5-0.1-0.7s0-0.5,0.1-0.7c0.1-0.2,0.2-0.4,0.3-0.6s0.3-0.3,0.5-0.4s0.4-0.1,0.7-0.1
				C576.4-85.5,576.7-85.5,576.9-85.4z M575.6-85c-0.1,0.1-0.2,0.2-0.3,0.3c-0.1,0.1-0.1,0.3-0.2,0.5c0,0.2,0,0.3,0,0.5s0,0.3,0,0.5
				s0.1,0.3,0.2,0.5c0.1,0.1,0.2,0.3,0.3,0.3c0.1,0.1,0.3,0.1,0.5,0.1c0.2,0,0.4,0,0.5-0.1c0.1-0.1,0.2-0.2,0.3-0.3
				c0.1-0.1,0.1-0.3,0.2-0.5c0-0.2,0-0.3,0-0.5s0-0.3,0-0.5s-0.1-0.3-0.2-0.5c-0.1-0.1-0.2-0.3-0.3-0.3c-0.1,0-0.3-0.1-0.5-0.1
				C575.9-85.1,575.7-85,575.6-85z"/>
		</g>
		<g id="XMLID_5716_" class="st56">
			<path id="XMLID_5717_" class="st2" d="M595-91.2l-0.4,2.5l0,0c0.3-0.3,0.6-0.5,1-0.7c0.4-0.1,0.8-0.2,1.2-0.2
				c0.6,0,1,0.1,1.5,0.3c0.4,0.2,0.8,0.5,1.1,0.8c0.3,0.3,0.5,0.7,0.7,1.2c0.2,0.5,0.2,1,0.2,1.5c0,0.6-0.1,1.1-0.3,1.6
				s-0.5,0.9-0.9,1.3s-0.8,0.6-1.3,0.8s-1,0.3-1.6,0.3c-0.5,0-1.1-0.1-1.6-0.2s-0.9-0.4-1.3-0.7c-0.4-0.3-0.7-0.7-0.9-1.1
				s-0.3-1-0.4-1.5h2.3c0.1,0.5,0.2,0.9,0.6,1.2c0.3,0.3,0.8,0.5,1.3,0.5c0.3,0,0.6-0.1,0.8-0.2c0.2-0.1,0.4-0.3,0.6-0.5
				s0.3-0.4,0.4-0.7c0.1-0.3,0.1-0.5,0.1-0.8s0-0.6-0.1-0.8c-0.1-0.2-0.2-0.5-0.4-0.7s-0.4-0.3-0.6-0.4c-0.2-0.1-0.5-0.2-0.8-0.2
				c-0.4,0-0.7,0.1-1,0.2c-0.3,0.1-0.5,0.4-0.7,0.7h-2l1.1-6.2h6.3v1.9H595V-91.2z"/>
			<path id="XMLID_5719_" class="st2" d="M601.2-90.3c0.2-0.7,0.5-1.3,0.9-1.8c0.4-0.4,0.8-0.8,1.3-1s1-0.3,1.6-0.3s1.1,0.1,1.6,0.3
				c0.5,0.2,0.9,0.5,1.3,1c0.4,0.4,0.7,1,0.9,1.8s0.3,1.7,0.3,2.7c0,1.1-0.1,2.1-0.3,2.8s-0.5,1.4-0.9,1.8c-0.4,0.4-0.8,0.8-1.3,1
				s-1,0.3-1.6,0.3s-1.1-0.1-1.6-0.3s-0.9-0.5-1.3-1c-0.4-0.4-0.7-1-0.9-1.8s-0.3-1.7-0.3-2.8C600.9-88.6,601-89.6,601.2-90.3z
				 M603.2-86.4c0,0.5,0.1,0.9,0.2,1.3c0.1,0.4,0.3,0.8,0.5,1.1c0.2,0.3,0.6,0.4,1.1,0.4s0.8-0.1,1.1-0.4c0.3-0.3,0.4-0.7,0.5-1.1
				c0.1-0.4,0.2-0.9,0.2-1.3c0-0.5,0-0.8,0-1.2c0-0.2,0-0.4,0-0.7c0-0.3,0-0.6-0.1-0.8c0-0.3-0.1-0.6-0.2-0.9s-0.2-0.5-0.3-0.8
				c-0.1-0.2-0.3-0.4-0.5-0.5c-0.2-0.1-0.5-0.2-0.8-0.2c-0.3,0-0.6,0.1-0.8,0.2s-0.4,0.3-0.5,0.5s-0.2,0.5-0.3,0.8
				c-0.1,0.3-0.1,0.6-0.2,0.9c0,0.3-0.1,0.6-0.1,0.8c0,0.3,0,0.5,0,0.7C603.2-87.2,603.2-86.9,603.2-86.4z"/>
		</g>
		<g id="XMLID_5684_" class="st56">
			<path id="XMLID_5710_" class="st2" d="M612.5-88.8c0.2,0.1,0.4,0.2,0.5,0.4c0.1,0.2,0.2,0.4,0.3,0.6c0.1,0.2,0.1,0.5,0.1,0.7
				s0,0.5-0.1,0.7c-0.1,0.2-0.2,0.4-0.3,0.6s-0.3,0.3-0.5,0.4s-0.4,0.1-0.7,0.1s-0.5,0-0.7-0.1c-0.2-0.1-0.4-0.2-0.5-0.4
				c-0.1-0.2-0.2-0.4-0.3-0.6c-0.1-0.2-0.1-0.5-0.1-0.7s0-0.5,0.1-0.7c0.1-0.2,0.2-0.4,0.3-0.6c0.1-0.2,0.3-0.3,0.5-0.4
				c0.2-0.1,0.4-0.1,0.7-0.1C612-89,612.3-88.9,612.5-88.8z M611.2-88.4c-0.1,0.1-0.2,0.2-0.3,0.3c-0.1,0.1-0.1,0.3-0.2,0.5
				c0,0.2,0,0.3,0,0.5s0,0.3,0,0.5s0.1,0.3,0.2,0.5c0.1,0.1,0.2,0.3,0.3,0.3c0.1,0,0.3,0.1,0.5,0.1s0.4,0,0.5-0.1
				c0.1-0.1,0.2-0.2,0.3-0.3s0.1-0.3,0.2-0.5c0-0.2,0-0.3,0-0.5s0-0.3,0-0.5s-0.1-0.3-0.2-0.5s-0.2-0.3-0.3-0.3
				c-0.1-0.1-0.3-0.1-0.5-0.1S611.4-88.5,611.2-88.4z M616.4-89.2l-4.5,7.6h-0.5l4.5-7.6H616.4z M616.9-85.4
				c0.2,0.1,0.4,0.2,0.5,0.4c0.1,0.2,0.2,0.4,0.3,0.6c0.1,0.2,0.1,0.5,0.1,0.7s0,0.5-0.1,0.7c-0.1,0.2-0.2,0.4-0.3,0.6
				c-0.1,0.2-0.3,0.3-0.5,0.4c-0.2,0.1-0.4,0.1-0.7,0.1s-0.5,0-0.7-0.1s-0.4-0.2-0.5-0.4c-0.1-0.2-0.2-0.4-0.3-0.6
				c-0.1-0.2-0.1-0.5-0.1-0.7s0-0.5,0.1-0.7c0.1-0.2,0.2-0.4,0.3-0.6s0.3-0.3,0.5-0.4s0.4-0.1,0.7-0.1
				C616.4-85.5,616.7-85.5,616.9-85.4z M615.6-85c-0.1,0.1-0.2,0.2-0.3,0.3c-0.1,0.1-0.1,0.3-0.2,0.5c0,0.2,0,0.3,0,0.5s0,0.3,0,0.5
				s0.1,0.3,0.2,0.5c0.1,0.1,0.2,0.3,0.3,0.3c0.1,0.1,0.3,0.1,0.5,0.1c0.2,0,0.4,0,0.5-0.1c0.1-0.1,0.2-0.2,0.3-0.3
				c0.1-0.1,0.1-0.3,0.2-0.5c0-0.2,0-0.3,0-0.5s0-0.3,0-0.5s-0.1-0.3-0.2-0.5c-0.1-0.1-0.2-0.3-0.3-0.3c-0.1,0-0.3-0.1-0.5-0.1
				C615.9-85.1,615.7-85,615.6-85z"/>
		</g>
	</g>
	<g id="XMLID_138_">
		<path id="XMLID_139_" class="st57" d="M1555.9-406.5h0.6l1.3,3.4h-0.6l-0.3-0.9h-1.4l-0.3,0.9h-0.6L1555.9-406.5z M1555.7-404.5h1
			l-0.5-1.5l0,0L1555.7-404.5z"/>
		<path id="XMLID_144_" class="st57" d="M1558.5-406.5h1.5c0.2,0,0.4,0,0.6,0.1c0.2,0.1,0.3,0.2,0.4,0.3s0.1,0.2,0.2,0.3
			c0,0.1,0,0.2,0,0.3s0,0.2,0,0.3s-0.1,0.2-0.2,0.3s-0.2,0.2-0.4,0.3c-0.2,0.1-0.4,0.1-0.6,0.1h-0.9v1.3h-0.6V-406.5z M1559.1-404.9
			h0.9c0.1,0,0.1,0,0.2,0s0.1,0,0.2-0.1c0.1,0,0.1-0.1,0.1-0.2s0.1-0.2,0.1-0.3s0-0.2,0-0.3s-0.1-0.1-0.1-0.2
			c-0.1,0-0.1-0.1-0.2-0.1s-0.1,0-0.2,0h-0.9L1559.1-404.9L1559.1-404.9z"/>
		<path id="XMLID_147_" class="st57" d="M1564.2-405.4c0-0.1-0.1-0.2-0.1-0.3s-0.1-0.2-0.2-0.2c-0.1-0.1-0.2-0.1-0.2-0.1
			c-0.1,0-0.2-0.1-0.3-0.1c-0.2,0-0.3,0-0.5,0.1c-0.2,0.1-0.2,0.2-0.3,0.3s-0.1,0.3-0.2,0.4c-0.1,0.1-0.1,0.3-0.1,0.5
			c0,0.2,0,0.3,0.1,0.5c0,0.2,0.1,0.3,0.2,0.4c0.1,0.1,0.2,0.2,0.3,0.3c0.1,0.1,0.3,0.1,0.5,0.1c0.1,0,0.3,0,0.4-0.1
			c0.1,0,0.2-0.1,0.3-0.2c0.1-0.1,0.1-0.2,0.2-0.3c0-0.1,0.1-0.2,0.1-0.3h0.6c0,0.2-0.1,0.4-0.1,0.6c-0.1,0.2-0.2,0.3-0.3,0.4
			c-0.1,0.1-0.3,0.2-0.5,0.3s-0.4,0.1-0.6,0.1c-0.3,0-0.5,0-0.7-0.1s-0.4-0.2-0.5-0.4s-0.2-0.4-0.3-0.6c-0.1-0.2-0.1-0.5-0.1-0.7
			c0-0.2,0-0.5,0.1-0.7c0.1-0.2,0.2-0.4,0.3-0.6c0.1-0.2,0.3-0.3,0.5-0.4s0.4-0.1,0.7-0.1c0.2,0,0.4,0,0.5,0.1
			c0.2,0.1,0.3,0.1,0.4,0.2c0.1,0.1,0.2,0.2,0.3,0.4c0.1,0.1,0.1,0.3,0.1,0.5L1564.2-405.4L1564.2-405.4z"/>
		<path id="XMLID_149_" class="st57" d="M1565.6-406.5h2.5v0.5h-1.9v0.9h1.7v0.5h-1.7v1h1.9v0.5h-2.5V-406.5z"/>
		<path id="XMLID_151_" class="st57" d="M1568.9-406.5h0.6v1.4h1.6v-1.4h0.6v3.4h-0.6v-1.5h-1.6v1.5h-0.6V-406.5z"/>
		<path id="XMLID_153_" class="st57" d="M1573.5-406.5h0.6l1.3,3.4h-0.6l-0.3-0.9h-1.4l-0.3,0.9h-0.6L1573.5-406.5z M1573.3-404.5h1
			l-0.5-1.5l0,0L1573.3-404.5z"/>
		<path id="XMLID_156_" class="st57" d="M1575.9-403.6c0.1,0,0.2,0,0.2-0.1s0.1-0.1,0.2-0.2c0-0.1,0.1-0.1,0.1-0.2s0-0.2,0.1-0.3
			c0-0.1,0-0.2,0-0.3s0-0.2,0-0.3s0-0.2,0-0.3s0-0.2,0-0.3s0-0.3,0-0.4c0-0.2,0-0.4,0-0.6h2.4v3.4h-0.6v-2.9h-1.2c0,0.2,0,0.4,0,0.6
			c0,0.2,0,0.3,0,0.5c0,0.2,0,0.3,0,0.4c0,0.1,0,0.3-0.1,0.4c0,0.1,0,0.2-0.1,0.3c0,0.1-0.1,0.2-0.2,0.4c-0.1,0.2-0.2,0.2-0.3,0.3
			c-0.1,0.1-0.3,0.1-0.5,0.1c-0.1,0-0.1,0-0.2,0h-0.1v-0.5C1575.7-403.6,1575.7-403.6,1575.9-403.6
			C1575.8-403.6,1575.8-403.6,1575.9-403.6z"/>
		<path id="XMLID_158_" class="st57" d="M1579.8-406.5h0.6v1.3h0.9c0.2,0,0.4,0,0.6,0.1s0.3,0.2,0.4,0.3s0.1,0.2,0.2,0.3
			s0,0.2,0,0.3s0,0.2,0,0.3s-0.1,0.2-0.2,0.3s-0.2,0.2-0.4,0.3s-0.4,0.1-0.6,0.1h-1.5V-406.5z M1580.4-403.6h0.9c0.1,0,0.2,0,0.2,0
			c0.1,0,0.1,0,0.2-0.1c0.1,0,0.1-0.1,0.1-0.2c0-0.1,0-0.2,0-0.3s0-0.2-0.1-0.3c0-0.1-0.1-0.1-0.1-0.2c-0.1,0-0.1-0.1-0.2-0.1
			s-0.1,0-0.2,0h-0.9L1580.4-403.6L1580.4-403.6z"/>
		<path id="XMLID_161_" class="st57" d="M1583.2-406.5h0.6v1.4h1.6v-1.4h0.6v3.4h-0.6v-1.5h-1.6v1.5h-0.6V-406.5z"/>
		<path id="XMLID_163_" class="st57" d="M1587.9-406.5h0.6l1.3,3.4h-0.6l-0.3-0.9h-1.4l-0.3,0.9h-0.6L1587.9-406.5z M1587.6-404.5h1
			l-0.5-1.5l0,0L1587.6-404.5z"/>
		<path id="XMLID_166_" class="st57" d="M1592.8-403.1h-0.6v-1.3h-0.7l-0.9,1.3h-0.7l1-1.4c-0.2,0-0.3-0.1-0.4-0.2s-0.2-0.2-0.2-0.3
			s-0.1-0.2-0.1-0.3s0-0.2,0-0.3s0-0.2,0-0.3s0.1-0.2,0.2-0.3s0.2-0.2,0.4-0.3c0.2-0.1,0.4-0.1,0.6-0.1h1.5v3.5H1592.8z M1592.2-406
			h-0.9c-0.1,0-0.2,0-0.2,0c-0.1,0-0.1,0-0.2,0.1c-0.1,0.1-0.1,0.1-0.1,0.2s0,0.2,0,0.3s0,0.2,0.1,0.3c0,0.1,0.1,0.1,0.1,0.2
			c0.1,0,0.1,0.1,0.2,0.1s0.1,0,0.2,0h0.9L1592.2-406L1592.2-406z"/>
	</g>
	<polygon id="XMLID_7726_" class="st14" points="1554.7,-410.6 1566,-433.6 1573.8,-422.9 1581.4,-433.6 1592.8,-410.6 1585,-410.6 
		1580.8,-419.1 1573.7,-410.6 1566.7,-419.1 1562.4,-410.6 	"/>
	<line id="XMLID_6539_" class="st32" x1="1353.5" y1="132" x2="1353.5" y2="172.1"/>
</g>
</svg>
