<svg id="Слой_1" xmlns="http://www.w3.org/2000/svg" viewBox="0 0 125 49"><style>.st0{fill:#74afdc}.st1{opacity:.35;fill:#cce2f2}</style><path class="st0" d="M62.7 12.3h-.2c-.3 0-.7.1-.9.3-.3.3-.5.6-.5 1v5c0 .6.4 1.2 1.1 1.4 2 .5 3.4 2.3 3.4 4.4 0 2.5-2 4.5-4.5 4.5-2.1 0-3.9-1.4-4.4-3.4-.2-.6-.7-1.1-1.4-1.1h-5.1c-.8 0-1.4.6-1.4 1.4v19.7c0 .8.6 1.4 1.4 1.4h5c.8 0 1.4-.6 1.4-1.4v-9.6c1.4.6 3 .9 4.5.9 6.8 0 12.3-5.5 12.3-12.3 0-6.2-4.6-11.4-10.7-12.2z"/><path class="st1" d="M40.5 29c-2.3.1-3.8 1.8-3.9 3.9.2 2.4 1.5 3.7 3.9 3.9 2.2-.1 3.8-1.6 3.9-3.9-.1-2.3-1.8-3.9-3.9-3.9z"/><path class="st0" d="M22.5 12.2c-1.5 0-3 .3-4.5.9V3.4c0-.8-.6-1.4-1.4-1.4h-5c-.8 0-1.4.6-1.4 1.4v19.7c0 .8.6 1.4 1.4 1.4h5.1c.6 0 1.2-.4 1.4-1.1.5-2 2.3-3.4 4.4-3.4 2.5 0 4.5 2 4.5 4.5 0 2.1-1.4 3.9-3.4 4.4-.6.2-1.1.7-1.1 1.4v5c0 .4.2.8.5 1 .3.2.6.3.9.3h.2c6.1-.8 10.7-6 10.7-12.2 0-6.7-5.5-12.2-12.3-12.2z"/><path class="st1" d="M119.4 29c-2.3.1-3.8 1.8-3.9 3.9.2 2.4 1.5 3.7 3.9 3.9 2.2-.1 3.8-1.6 3.9-3.9-.2-2.3-1.8-3.9-3.9-3.9zm-39.5 0c-2.3.1-3.8 1.8-3.9 3.9.2 2.4 1.5 3.7 3.9 3.9 2.2-.1 3.8-1.6 3.9-3.9-.1-2.3-1.7-3.9-3.9-3.9z"/><path class="st0" d="M109.5 24.4h-5.1c-.6 0-1.2.4-1.4 1.1-.5 2-2.3 3.4-4.4 3.4-2.5 0-4.5-2-4.5-4.5 0-2.1 1.4-3.9 3.4-4.4.6-.2 1.1-.7 1.1-1.4v-5c0-.4-.2-.8-.5-1-.3-.2-.6-.3-.9-.3H97c-6.1.8-10.7 6-10.7 12.2 0 6.8 5.5 12.3 12.3 12.3 1.5 0 3.5-.4 4.6-.9.2.5.7.9 1.3.9h5c.8 0 1.4-.6 1.4-1.4v-9.5c0-.8-.7-1.5-1.4-1.5z"/><path class="st1" d="M20.3 36.5H20c-4.8-1-8.5-4.7-9.5-9.5-.1-.4 0-.8.3-1.2.3-.3.7-.5 1.1-.5H17c.6 0 1.1.3 1.3.9.5 1.1 1.4 2.1 2.5 2.5.5.2.9.7.9 1.3v5.2c0 .4-.2.8-.5 1.1-.2.1-.6.2-.9.2zm28.8-14.2V22c1-4.8 4.7-8.5 9.5-9.5.4-.1.8 0 1.2.3.3.3.5.7.5 1.1V19c0 .6-.3 1.1-.9 1.3-1.1.5-2.1 1.4-2.5 2.5-.2.5-.7.9-1.3.9h-5.2c-.4 0-.8-.2-1.1-.5-.1-.3-.2-.6-.2-.9zm51.7-9.9h.3c4.8 1 8.5 4.7 9.5 9.5.1.4 0 .8-.3 1.2-.3.3-.7.5-1.1.5H104c-.6 0-1.1-.3-1.3-.9-.5-1.1-1.4-2.1-2.5-2.5-.5-.2-.9-.7-.9-1.3v-5.2c0-.4.2-.8.5-1.1.4-.1.7-.2 1-.2z"/></svg>